/* XPM */
static char *s68amKpRiDRPrzh_png[] = {
/* columns rows colors chars-per-pixel */
"50 50 170 2 ",
"   c #000000",
".  c #090A06",
"X  c #0B0D08",
"o  c #0E110A",
"O  c #151C0E",
"+  c #171E10",
"@  c #1A220F",
"#  c #1C2412",
"$  c #222D15",
"%  c #232F18",
"&  c #283617",
"*  c #243B17",
"=  c #273519",
"-  c #2D3D1A",
";  c #30411C",
":  c #364C20",
">  c #3A4C25",
",  c #3E5325",
"<  c #405823",
"1  c #405529",
"2  c #455C2B",
"3  c #466125",
"4  c #49612C",
"5  c #44692F",
"6  c #4E6B2C",
"7  c #526F2F",
"8  c #53722F",
"9  c #466330",
"0  c #4D6630",
"q  c #516D31",
"w  c #577434",
"e  c #5C7E35",
"r  c #5D7B38",
"t  c #4F8635",
"y  c #568433",
"u  c #5C8034",
"i  c #588936",
"p  c #50923A",
"a  c #5A993E",
"s  c #63853B",
"d  c #648938",
"f  c #698F3C",
"g  c #6B913E",
"h  c #67983F",
"j  c #70993F",
"k  c #76A13B",
"l  c #62B83E",
"z  c #69BC3D",
"x  c #74BD3F",
"c  c #7FC63A",
"v  c #50965D",
"b  c #529A59",
"n  c #589E5A",
"m  c #698E41",
"M  c #6F9741",
"N  c #729B41",
"B  c #5AA74E",
"V  c #5BA552",
"C  c #6CA645",
"Z  c #62AB46",
"A  c #63AC4D",
"S  c #6AAF4D",
"D  c #75A141",
"F  c #78A644",
"G  c #74A945",
"H  c #7DAC44",
"J  c #64B343",
"K  c #6DB646",
"L  c #6DB943",
"P  c #6DB24B",
"I  c #70B546",
"U  c #7FB046",
"Y  c #74BB43",
"T  c #7BBE46",
"R  c #73B44C",
"E  c #7AB54E",
"W  c #76B849",
"Q  c #7CBA4B",
"!  c #61A653",
"~  c #65A951",
"^  c #6CAB53",
"/  c #6BA35B",
"(  c #72AD53",
")  c #79AC57",
"_  c #70A758",
"`  c #77AB5B",
"'  c #74B151",
"]  c #7CB352",
"[  c #7BC042",
"{  c #80B83E",
"}  c #81C43E",
"|  c #86C93C",
" . c #8ECB3F",
".. c #94CC3F",
"X. c #99D23C",
"o. c #81B247",
"O. c #81BF47",
"+. c #82B54D",
"@. c #85BD4C",
"#. c #89BE4C",
"$. c #82B552",
"%. c #85B950",
"&. c #81C145",
"*. c #82C144",
"=. c #82C145",
"-. c #82C047",
";. c #83C146",
":. c #86C345",
">. c #86C147",
",. c #85C247",
"<. c #87C247",
"1. c #83C146",
"2. c #8DC547",
"3. c #8FC646",
"4. c #8EC647",
"5. c #8DC546",
"6. c #8EC940",
"7. c #83C048",
"8. c #84C048",
"9. c #85C048",
"0. c #85C148",
"q. c #87C149",
"w. c #86C248",
"e. c #87C14B",
"r. c #85C149",
"t. c #88C149",
"y. c #88C248",
"u. c #89C249",
"i. c #89C249",
"p. c #8AC348",
"a. c #8AC249",
"s. c #8BC249",
"d. c #8BC349",
"f. c #88C04A",
"g. c #89C04A",
"h. c #88C14A",
"j. c #89C14A",
"k. c #88C04B",
"l. c #89C04B",
"z. c #89C14B",
"x. c #88C14B",
"c. c #8AC14A",
"v. c #8BC14A",
"b. c #8BC04B",
"n. c #8AC14B",
"m. c #8BC14B",
"M. c #8AC04B",
"N. c #89C24A",
"B. c #8AC24A",
"V. c #8BC24A",
"C. c #8BC34B",
"Z. c #8CC249",
"A. c #8CC349",
"S. c #8DC349",
"D. c #8CC24A",
"F. c #8CC34A",
"G. c #8CC448",
"H. c #8DC448",
"J. c #8DC548",
"K. c #8CC449",
"L. c #89C04C",
"P. c #88C04C",
"I. c #8AC04C",
"U. c #8BC24A",
"Y. c #90C746",
"T. c #91C746",
"R. c #93CB41",
"E. c #97CE40",
"W. c #90C845",
"Q. c #92C943",
/* pixels */
"V.V.%.' T V.V.V.V.V.V.V.V.V.V.V.V.V.V.V.V.V.V.V.V.V.V.V.V.V.V.V.V.V.V.V.V.V.V.V.V.V.V.V.V.V.V.V.V.V.",
"V.V.%.` R V.V.V.V.V.V.V.V.V.V.V.V.V.V.V.V.V.V.V.V.V.V.V.V.V.V.V.V.V.V.V.V.V.V.V.V.V.V.V.V.V.V.V.V.V.",
"V.V.V.I.V.V.V.V.V.V.V.V.V.V.V.V.V.V.V.V.V.V.V.V.V.T V.V.V.V.V.V.V.V.V.V.V.V.V.F.T.2.V.V.V.V.V.V.V.V.",
"V.V.V.V.V.V.V.V.V.V.V.V.V.V.V.V.V.V.@.V.V.V.V.V.V.Y Q @.V.V.V.V.V.V.V.V.8.V.V.V.G.F.V.V.V.V.V.V.V.V.",
"V.V.V.V.V.V.V.&.V.V.V.V.V.V.V.V.V.@.@.V.V.V.V.V.V.Y P E V.V.V.V.@.V.G.V.@.V.V.V.V.V.V.V.V.V.V.V.V.V.",
"V.V.V.V.V.V.V.R W @.V.V.V.V.V.V.V.V.V.V.V.V.V.V.V.V.@.V.V.V.V.V.V.V.F.V.V.V.V.V.V.F.T T 7.V.V.V.V.V.",
"V.V.V.V.V.V.V.' ( E V.V.V.V.V.V.V.V.V.8.V.V.8.#.V.V.V.V.V.V.V.V.V.V.V.V.V.V.V.V.V.V.8.L Q @.V.V.V.V.",
"V.V.V.V.V.V.V.V.V.V.V.V.V.V.V.V.V.V.V.T -.T L @.V.V.V.V.V.V.V.V.V.V.V.V.V.V.V.V.V.V.V.^ ^ Q V.V.V.V.",
"V.V.V.V.V.V.V.V.V.V.V.V.V.V.V.V.V.V.V.R.c P R #.V.V.V.V.V.V.V.V.V.<.[ V.V.V.F.G.V.V.V.@.@.I.V.V.V.V.",
"V.V.V.V.V.V.@.@.V.V.V.V.V.V.V.V.V.V.V.@.~ / ] V.V.V.V.V.V.-.&.V.V.[ -.8.V.V.F.G.V.V.V.V.V.V.V.V.V.V.",
"V.V.V.V.V.V.@.@.V.V.V.V.V.V.V.V.*.V.V.V.] @.V.V.V.V.V.V.V.V.| :.-.J O.[ T 8.V.V.V.V.V.V.V.V.V.V.V.V.",
"V.V.@.V.V.V.] ] V.V.V.V.V.V.V.<.x 8.V.V.F.V.V.V.#.@.V.V.V.F.<.T -.R L T L -.V.V.V.V.V.V.V.V.V.V.V.V.",
"V.V.V.V.V.V.+.$.F.V.V.V.V.V.@.@.J E V.V.V.V.V.V.@.] I.V.V.V.] ( ~ ' ! R P @.V.V.V.V.V.V.V.V.G.F.V.V.",
"V.V.V.V.V.V.V.V.8.<.F.V.V.V.V.V.@.#.V.V.V.V.V.V.V.I.V.V.V.V.#.@.@.#.@.V.V.V.V.V.V.V.V.V.V.V.2.2.V.V.",
"V.V.V.V.V.V.V.V.8. .G.V.@.O.#.#.#.#.#.#.#.V.V.V.V.V.V.V.V.V.V.V.V.V.V.V.V.V.V.V.V.W.G.V.V.V.V.V.V.V.",
"V.V.V.V.V.O.-.V.V.Y Y y - * - - - - - - - e V.V.V.V.V.V.V.f 3 3 3 3 3 3 3 3 3 8 @.E...T V.V.V.V.V.V.",
"V.V.V.V.V.8.Y T W V J 2                   2 @.@.#.V.V.V.V.1                   # o.F.Q R %.#.V.V.V.V.",
"V.V.V.V.V.V.R 8.R n R F =                 4 #.m > o.2 f V.2                 # g #.8.A ' %.V.V.V.V.V.",
"V.V.V.V.V.V.V.V.V.@.V.V.4 o               1 @.r + N % e V.2               o , V.V.8.R ] V.V.V.V.V.V.",
"V.V.V.V.V.V.V.V.V.V.V.V.@.<               . - w . # X i u O               q @.V.V.V.F.V.V.V.V.V.V.V.",
"V.V.] $.V.V.V.V.V.V.V.V.V.d $               O r .     9 >               # M V.V.V.V.V.V.V.V.V.#.V.V.",
"V.V.Q @.V.V.V.V.V.V.F.8.7.V.w .             . $ .     . o               3 V.V.V.T.T.@.V.V.V.V.+.@.V.",
"V.F.L K 8.V.V.V.V.V.G.V.} T G q .                                   . 4 D V.V.V.R.6.@.V.V.V.V.V.V.V.",
"V.V.Q R V.V.V.V.V.V.V.V.} I %.N X                                   X N V.@.V.V.8.7.@.V.V.V.V.V.V.V.",
"V.V.F.F.V.V.V.V.V.8.V.V.8.@.#.N X                                   X j @.$.V.V.V.V.V.V.V.V.V.V.V.V.",
"V.V.V.V.V.V.V.V.V.8.8.V.V.V.V.N X                                   X j V.V.V.V.V.V.V.V.V.V.V.V.V.V.",
"V.V.V.V.V.-.8.#.V.V.@.V.V.V.V.N .                               O   X j V.V.V.V.V.-.8.V.V.V.#.@.V.V.",
"V.V.V.V.V.-.Y Q #.V.V.V.F.2.V.H 0 4 4 @                       # g 8 7 U V.V.V.V.V. .[ @.F.V.@.@.V.V.",
"V.V.V.V.V.8.L R @.V.V.V.V.V.V.V.V.V.V.; . .                   - 8.V.T @.V.V.V.V.#.Q P R @.V.V.V.V.V.",
"V.V.V.V.V.%.( W @.V.V.V.V.<.V.V.V.V.V.N g 2               & 3 u x T J Q @.V.V.V.V.] ( R @.V.V.V.V.V.",
"V.V.V.V.V.V.V.V.V.V.V.V.F.T T 8.V.V.V.V.V.s + #       : @ 6 V.8.J P P @.#.V.V.V.V.V.V.V.V.V.V.V.V.V.",
"V.V.V.V.F.F.V.V.V.V.V.V.F.' R W V.V.V.V.V.@.o.k o   . t h F F.V.P R ] #.V.V.V.V.V.V.V.V.V.V.V.V.V.V.",
"V.V.V.V.F.W.G.V.V.V.V.V.V.@.@.@.V.V.V.<.[ V.<.{ , . $ p R F.2.F.V.@.F.V.V.@.V.V.V.V.2.F.V.V.V.V.V.V.",
"V.V.@.V.V.F.V.V.V.V.V.V.V.V.V.V.V.V.V.V.[ [ <.Z C O y Y ] @.F.V.V.V.V.V.V.V.V.V.V.V.2.F.V.V.V.F.2.V.",
"V.V.V.V.V.V.V.V.V.V.V.V.V.V.V.V.V.V.V.V.-.Y I A Z 5 a Q @.@.V.V.V.V.V.V.V.V.V.V.V.V.V.V.V.V.V.V.F.V.",
"V.V.V.V.V.V.V.V.V.V.V.V.V.V.V.V.V.V.V.V.8.Y P ^ S ^ P $.V.V.V.V.V.V.V.V.V.8.V.V.V.V.V.V.V.V.V.V.V.V.",
"V.V.V.V.V.V.V.V.V.V.V.V.F.2.V.V.V.V.V.V.V.V.V.V.V.V.V.V.V.V.V.V.V.V.V.V.V.<.[ V.F.V.V.V.V.V.V.V.V.V.",
"V.V.V.V.-.V.V.V.V.V.V.@.V.F.V.V.V.V.V.V.V.V.V.V.V.V.V.V.V.V.V.V.V.V.<.<.#.#.Y T T <.[ V.#.V.V.V.V.V.",
"V.V.V.V.| <.#.V.V.V.V.V.V.V.V.X.2.V.V.V.V.V.V.V.V.V.V.G.G.V.V.V.V.V.<.[ W E A J W @.z Q %.V.V.V.V.V.",
"V.V.V.V.x P $.#.V.V.V.V.V.V.V.R.W -.V.V.V.V.V.V.V.V.V.V.V.V.V.V.V.V.V.I Q S b ~ @.8.l R #.V.V.F.V.V.",
"V.V.V.V.8.@.#.V.V.V.V.V.V.V.#.] P Y 8.V.V.V.V.V.V.V.V.V.V.V.V.V.V.V.V.@.V.@.Q @.V.V.@.@.V.V.G.T.V.V.",
"V.V.V.V.V.V.V.V.8.V.V.8.V.V.V.%.Q -.V.V.V.V.V.V.V.V.V.V.F.T.W.2.V.V.V.V.V.V.F.V.V.V.F.V.V.V.F.2.V.V.",
"V.V.V.V.V.V.V.V.T <.Q L @.V.V.V.F.F.V.V.V.V.V.V.V.V.V.V.V.F.G.F.V.V.V.V.V.V.V.V.V.V.V.V.V.V.V.V.V.V.",
"V.V.V.V.V.V.V.V.6.Y P R @.V.V.V.V.V.V.V.8.7.T V.V.V.V.V.V.V.V.8.V.V.V.V.V.V.V.V.V.V.@.@.V.V.V.V.V.V.",
"V.V.V.V.V.V.V.F.T V ^ ] #.V.V.V.V.2.F.V.Q R 7.V.V.V.V.V.V.V.V.T T V.F.V.V.V.V.V.V.@.@.V.V.V.V.V.V.V.",
"V.V.V.V.V.V.V.V.@.^ ( @.V.V.V.V.V.G.V.V.8.W V.F.G.V.V.V.7.V.V.2.X.[ -.T T I.@.V.V.V.V.V.V.V.V.V.V.V.",
"V.V.V.V.V.V.V.V.V.V.V.V.V.V.V.V.@.@.V.V.V.V.V.2.2.V.V.V.T Y T Q P J Q T J $.#.V.V.V.V.V.8.V.V.V.V.V.",
"V.V.V.V.V.V.V.V.V.V.V.V.V.V.V.V.8.@.V.V.V.V.V.F.V.V.V.V.@.P Q ~ v / $.Q B ) #.V.V.V.V.V.T T @.#.V.V.",
"V.V.W @.F.V.V.V.V.V.V.V.V.V.V.V.V.V.V.V.V.V.V.V.V.V.V.V.V.@.V.@.Q %.V.V.@.@.V.V.V.V.V.V.@.~ $.%.V.V.",
"V.V.P P V.V.V.V.V.V.V.V.V.V.V.V.V.V.V.V.V.V.V.V.V.V.V.V.V.F.V.V.F.F.V.V.F.V.V.V.V.V.V.V.8.V _ #.V.V."
};
