/* XPM */
static char *_fdc02ed37544394dafc577c4a443855QAdwfCfGd3pOBi3m[] = {
/* columns rows colors chars-per-pixel */
"50 50 25 1 ",
"  c None",
". c black",
"X c #010101",
"o c #020202",
"O c gray1",
"+ c #040404",
"@ c gray2",
"# c #060606",
"$ c #070707",
"% c gray3",
"& c #090909",
"* c gray4",
"= c #0B0B0B",
"- c #0C0C0C",
"; c gray5",
": c #0E0E0E",
"> c gray6",
", c gray8",
"< c #151515",
"1 c #161616",
"2 c gray9",
"3 c #181818",
"4 c #191919",
"5 c gray10",
"6 c gray13",
/* pixels */
"                                                  ",
"                                                  ",
"                                                  ",
"                                                  ",
"                                                  ",
"                                                  ",
"                                                  ",
"                                                  ",
"                                                  ",
"                                                  ",
"                                                  ",
"                                                  ",
"                                                  ",
"                                                  ",
"                                                  ",
"            +++++++++         XXXXXXXXX           ",
"           3XXXXXXXXX<       <XXXXXXXXX%          ",
"            %XXXXXXXX<  ; <  <XXXXXXXX+           ",
"            <+XXXXXXX<  % ;  <XXXXXXX+%           ",
"             +XXXXXXX+;6+%+  +XXXXXXX3            ",
"              %XXXXXXX+ +XX3<XXXXXXX%             ",
"               XXXXXXXX%XXXX%XXXXXXX+             ",
"                +XXXXXXXXXXXXXXXXXX3              ",
"                +XXXXXXXXXXXXXXXXX+               ",
"                +XXXXXXXXXXXXXXXXX+               ",
"                +XXXXXXXXXXXXXXXXX+               ",
"                +XXXXXXXXXXXXXXX%X+               ",
"                3<;+XXXXXXXXXXX+                  ",
"                   ++XXXXXXXXXX%                  ",
"                     <XXXXXXX+X                   ",
"                      %%XXX%+                     ",
"                        +XX                       ",
"                        <X+                       ",
"                         +                        ",
"                                                  ",
"                                                  ",
"                                                  ",
"                                                  ",
"                                                  ",
"                                                  ",
"                                                  ",
"                                                  ",
"                                                  ",
"                                                  ",
"                                                  ",
"                                                  ",
"                                                  ",
"                                                  ",
"                                                  ",
"                                                  "
};
