/* XPM */
static char *s68a9dCVVAIbuOt_png[] = {
/* columns rows colors chars-per-pixel */
"50 50 192 2 ",
"   c #0E0E0E",
".  c #100F0E",
"X  c #10100F",
"o  c #100F10",
"O  c #0F1010",
"+  c #131313",
"@  c #181717",
"#  c #191A17",
"$  c #1B1B1B",
"%  c #161617",
"&  c #221E15",
"*  c #211E1C",
"=  c #20221E",
"-  c #2F291B",
";  c #2A271C",
":  c #362D1D",
">  c #3B311D",
",  c #242423",
"<  c #282726",
"1  c #292826",
"2  c #2C2B2A",
"3  c #302F2D",
"4  c #2F322C",
"5  c #2D3724",
"6  c #32322E",
"7  c #35392D",
"8  c #353533",
"9  c #3A3936",
"0  c #3D3D3A",
"q  c #373D31",
"w  c #403E3C",
"e  c #36461F",
"r  c #2F4325",
"t  c #344323",
"y  c #38442A",
"u  c #3D4B2C",
"i  c #384626",
"p  c #3C4534",
"a  c #3F403C",
"s  c #3C5031",
"d  c #3E6628",
"f  c #594927",
"g  c #514427",
"h  c #475C2F",
"j  c #42413E",
"k  c #46493E",
"l  c #4B5A38",
"z  c #624F28",
"x  c #6A582B",
"c  c #4B672D",
"v  c #4E6731",
"b  c #526A38",
"n  c #516835",
"m  c #5A7738",
"M  c #7C6330",
"N  c #454441",
"B  c #484744",
"V  c #4A4946",
"C  c #4E4C4A",
"Z  c #504F4D",
"A  c #4F5B42",
"S  c #51514D",
"D  c #515943",
"F  c #555352",
"G  c #585753",
"H  c #5A5A54",
"J  c #5A5A59",
"K  c #605F5B",
"L  c #5F6B4D",
"P  c #5F605A",
"I  c #64635F",
"U  c #676D5C",
"Y  c #696F5C",
"T  c #637154",
"R  c #6B745D",
"E  c #6D7D5A",
"W  c #666461",
"Q  c #6B6C64",
"!  c #6C6B69",
"~  c #676862",
"^  c #667B60",
"/  c #74736F",
"(  c #707563",
")  c #7B7A76",
"_  c #807F7C",
"`  c #70A43C",
"'  c #64B93E",
"]  c #69BC3D",
"[  c #74BD3F",
"{  c #7CC43D",
"}  c #51985B",
"|  c #6F9343",
" . c #759C4B",
".. c #709543",
"X. c #6F835D",
"o. c #6F895C",
"O. c #74845E",
"+. c #758C5B",
"@. c #798C5E",
"#. c #738E55",
"$. c #7C975B",
"%. c #699457",
"&. c #5AA74E",
"*. c #5BA552",
"=. c #61AE46",
"-. c #63AC4D",
";. c #6AAF4D",
":. c #7CA54B",
">. c #75AB4B",
",. c #78AA47",
"<. c #64B344",
"1. c #6DB645",
"2. c #6DB943",
"3. c #6DB24B",
"4. c #74BB44",
"5. c #7BBE45",
"6. c #73B44C",
"7. c #7AB54E",
"8. c #76B849",
"9. c #7CBA4B",
"0. c #65A951",
"q. c #6CAB53",
"w. c #67A458",
"e. c #73AD53",
"r. c #7CAD56",
"t. c #75A657",
"y. c #73B152",
"u. c #7CB353",
"i. c #768762",
"p. c #7A9161",
"a. c #7BC042",
"s. c #85BC3A",
"d. c #86C93C",
"f. c #89C73E",
"g. c #94CC3F",
"h. c #99D23C",
"j. c #809D5C",
"k. c #AD8C42",
"l. c #81AF4C",
"z. c #80BF47",
"x. c #83B54D",
"c. c #85BD4C",
"v. c #89BE4C",
"b. c #86AC56",
"n. c #85A658",
"m. c #83B452",
"M. c #8AB655",
"N. c #86BA50",
"B. c #8BBC51",
"V. c #88B35A",
"C. c #839B63",
"Z. c #99BE6D",
"A. c #8EA770",
"S. c #9ABA76",
"D. c #9CB57D",
"F. c #9EBC7A",
"G. c #95B67B",
"H. c #C39C44",
"J. c #CDA848",
"K. c #DCAF48",
"L. c #EBBC4D",
"P. c #83C146",
"I. c #8DC546",
"U. c #85C149",
"Y. c #8AC14A",
"T. c #8BC24A",
"R. c #8AC24A",
"E. c #89C14A",
"W. c #8CC24A",
"Q. c #8CC349",
"!. c #8DC448",
"~. c #89C04D",
"^. c #8BC24A",
"/. c #90C746",
"(. c #93CA43",
"). c #91C748",
"_. c #8EC055",
"`. c #97C263",
"'. c #8A8985",
"]. c #979692",
"[. c #9F9E9A",
"{. c #9B9A96",
"}. c #A09F9C",
"|. c #9CB680",
" X c #9DA492",
".X c #A3A29F",
"XX c #A4A39F",
"oX c #A3A29E",
"OX c #A5AE98",
"+X c #A5A4A1",
"@X c #A5A4A1",
"#X c #A8A7A5",
/* pixels */
"T.T.N.y.5.T.T.T.T.T.T.T.T.T.T.T.T.T.T.T.T.T.T.T.T.T.T.T.T.T.T.T.T.T.T.T.T.T.T.T.T.T.T.T.T.T.T.T.T.T.",
"T.T.N.t.6.T.T.T.T.T.T.T.T.T.T.T.T.T.T.T.T.T.T.T.T.T.T.T.T.T.T.T.T.T.T.T.T.T.T.T.T.T.T.T.T.T.T.T.T.T.",
"T.T.T.~.T.T.T.T.T.T.T.T.T.T.T.T.T.T.T.T.T.T.T.T.T.5.T.T.T.T.T.T.T.T.T.T.T.T.T.W./.I.T.T.T.T.T.T.T.T.",
"T.T.T.T.T.T.T.T.T.T.T.T.T.T.T.T.T.T.c.T.T.T.T.T.T.4.9.c.T.T.T.T.T.T.T.T.U.T.T.T.!.W.T.T.T.T.T.T.T.T.",
"T.T.T.T.T.T.T.P.T.T.T.T.T.T.T.T.T.c.c.T.T.T.T.T.T.4.3.7.T.T.T.T.c.T.!.T.c.T.T.T.T.T.T.T.T.T.T.T.T.T.",
"T.T.T.T.T.T.T.6.8.c.T.T.T.T.T.T.T.T.T.T.T.T.T.T.T.T.c.T.T.T.T.T.T.T.W.T.T.T.T.T.T.W.5.5.P.T.T.T.T.T.",
"T.T.T.T.T.T.T.y.e.7.T.T.T.T.T.T.T.T.T.U.T.T.U.v.T.T.T.T.T.T.T.T.T.T.T.T.T.T.T.T.T.T.U.1.5.c.T.T.T.T.",
"T.T.T.T.T.T.T.T.T.T.T.T.T.T.T.T.T.T.T.5.P.5.2.c.T.T.T.T.T.T.T.T.T.T.T.T.T.T.T.T.T.T.T.q.q.9.T.T.T.T.",
"T.T.T.T.T.T.T.T.T.T.T.T.T.T.T.T.T.T.T.(.{ 3.6.v.T.T.T.T.T.T.T.T.T.U.a.T.T.T.W.!.T.T.T.c.c.~.T.T.T.T.",
"T.T.T.T.T.T.c.c.T.T.T.T.T.T.T.T.T.T.T.c.0.w.u.T.T.T.T.T.T.P.P.T.T.a.P.U.T.T.W.!.T.T.T.T.T.T.T.T.T.T.",
"T.T.T.T.T.T.c.c.T.T.T.T.T.T.T.T.P.T.T.T.u.c.T.T.T.T.T.T.T.T.d.P.P.<.z.a.5.U.T.T.T.T.T.T.T.T.T.T.T.T.",
"T.T.c.T.T.T.u.u.T.T.T.T.T.T.T.U.[ U.T.T.W.T.T.T.v.c.T.T.T.W.U.5.P.6.1.5.2.P.T.T.T.T.T.T.T.T.T.T.T.T.",
"T.T.T.T.T.T.x.m.W.T.T.T.T.T.c.c.<.7.T.T.T.T.T.T.c.u.~.T.T.T.u.e.0.y.0.6.3.c.T.T.T.T.T.T.T.T.!.W.T.T.",
"T.T.T.T.T.T.T.T.U.U.W.T.T.T.T.T.c.v.T.T.T.T.T.T.T.~.T.T.T.T.v.c.c.v.c.T.T.T.T.T.T.T.T.T.T.T.I.I.T.T.",
"T.T.T.T.T.T.T.T.U.f.!.T.T.U.T.T.T.T.T.T.T.T.T.T.T.T.T.T.T.T.T.T.T.T.T.T.T.T.T.T.T./.!.T.T.T.T.T.T.T.",
"T.T.T.T.T.z.z.T.T.4.4.5.P.4.T.T.T.T.T.T.T.T.T.T.T.T.T.T.T.T.T.T.T.T.T.T.T.T.T.T.T.(.g.5.T.T.T.T.T.T.",
"T.T.T.T.T.N.o.X.X.^ %.z.U.' 5.W.T.T.T.T.T.T.c.c.T.T.T.T.T.T.T.T.T.T.T.T.c.T.T.T.T.W.9.6.m.v.T.T.T.T.",
"T.T.T.m.$.+.0 8 9 8 p c c d ,.W.T.T.~.S.D.D.D.D.D.D._.T.T.T.T.T.T.U.T.T.v.~.T.T.T.U.-.y.N.T.T.T.T.T.",
"T.T.V.E B N $ @ $ + $ @ + @ b ,.`.F.G.oXoX+XoXoXoXoX|.S.F.Z.T.T.T.{ P.v.v.T.T.T.T.U.6.u.T.T.T.T.T.T.",
"W.M.E 8 @ , @ + @ O @ +   + @ h A.#X@XXX@X@XXX@XXXXX@X@X#XOX`.W.W.s.`  . .:.v.T.T.T.W.T.T.T.T.T.T.T.",
"W.p.j $ 4 H $   +   + + + @ $ @ S [.[.oX@X@XXX@XXXXX@XXXoX}. Xm.x.h @ = = 5 :.B.v.T.T.T.T.T.T.v.T.T.",
"W.B.>.,.l.b.H , $ + $ , S G G F K ! / {.@X@XoX@XXXXXXXXX'.! W 7 5 = + 2 F G Q ( n.).v.T.T.T.T.x.c.T.",
"T.W.1.1.U.B.U < @ + 2 B 2 2 2 < j I W / ].XXoXoXoXoX+X'.S < 3 C C 2 3 B 2 2 2 2 D O.p.W.T.T.T.T.T.T.",
"T.T.9.6.M.@.0 $ @ 1 j 9 0 j N a 0 j I W ) ].@X#X#X@X! N , $ w 9 9 j 0 0 j a j j 9 B Q C.B.T.T.T.T.T.",
"T.T.W.W.M.O.9 $ 2 w N 9 N N B N j 9 B I I ) _ ! ! ! 1 2 8 9 j $ 2 N 0 0 B N B B 0 0 C ~ C.B.T.T.T.T.",
"T.T.T.T.T.M.U , 0 9 8 N + + + . 2 N 2 C Z S j * @ < < N S 0 @ 1 B 8 9 0 + o + + 8 N 2 Z I j.B.T.T.T.",
"T.T.T.T.~.b.R 7 = 0 C $ @ ; : * $ 1 G , @ @ 8 B , F J 8 @ @ , C < B w $ $ ; - * @ 8 S , S P #.x.T.T.",
"T.T.T.T.b.i.e.>.u 9 C + & k.J.x % , G = + + $ @ @ $ $ $ + + @ $ @ B 0 @ : H.J.g   6 S $ $ $ $ b ~.T.",
"T.T.T.T.v.t.s T q 9 C + & H.L.M + , G * + + @ + @ @ + @ + + @ + + B 0 + > K.L.f   6 S $ B , X ; n v.",
"T.T.T.T.T.r.V J 4 9 C o + f x > + = H B j j N j N N j N j j N N j G 9 + & z x -   6 S $ G <   y ..T.",
"T.T.T.T.T.B.$.@.p 2 j 8 @ + @ + , 9 j j j j N j N N j N j j N N j N 0 6 @ + + @ < 0 8 $ 9 = + y | T.",
"T.T.T.T.W.W.T.W.m t l T 2 1 2 < k T i t t t i e t t t r t t t t 5 t A L 1 < 1 2 A L t t t t t t v v.",
"T.T.T.T.W./.!.T.T.v.T.M.R Y Y U @.W.v.c.5.v.v.f.U.z.c.=.>.v.W.T.c.c.W.b.R U U Y $.~.Q.T.v.v.v.v.v.T.",
"T.T.c.T.T.W.T.T.T.T.T.~.v.v.v.v.v.T.T.T.a.a.U.=.8.5.5.4.u.c.W.T.T.T.T.v.c.x.v.v.v.T.I.W.T.T.T.W.I.T.",
"T.T.T.T.T.T.T.T.T.T.T.T.T.T.T.T.T.T.T.T.P.4.4.-.<.6.3.9.c.c.T.T.T.T.T.T.T.T.T.T.T.T.T.T.T.T.T.T.W.T.",
"T.T.T.T.T.T.T.T.T.T.T.T.T.T.T.T.T.T.T.T.U.4.3.q.-.q.3.x.T.T.T.T.T.T.T.T.T.U.T.T.T.T.T.T.T.T.T.T.T.T.",
"T.T.T.T.T.T.T.T.T.T.T.T.W.I.T.T.T.T.T.T.T.T.T.T.T.T.T.T.T.T.T.T.T.T.T.T.T.U.a.T.W.T.T.T.T.T.T.T.T.T.",
"T.T.T.T.P.T.T.T.T.T.T.c.T.W.T.T.T.T.T.T.T.T.T.T.T.T.T.T.T.T.T.T.T.T.U.U.v.v.4.5.5.U.a.T.v.T.T.T.T.T.",
"T.T.T.T.d.U.v.T.T.T.T.T.T.T.T.h.I.T.T.T.T.T.T.T.T.T.T.!.!.T.T.T.T.T.U.a.8.7.-.<.8.z.] 9.N.T.T.T.T.T.",
"T.T.T.T.[ 3.m.v.T.T.T.T.T.T.T.(.8.P.T.T.T.T.T.T.T.T.T.T.T.T.T.T.T.T.T.4.9.;.} 0.c.U.' 6.v.T.T.W.T.T.",
"T.T.T.T.U.c.v.T.T.T.T.T.T.T.v.u.3.4.U.T.T.T.T.T.T.T.T.T.T.T.T.T.T.T.T.c.T.c.9.c.T.T.z.c.T.T.!./.T.T.",
"T.T.T.T.T.T.T.T.U.T.T.U.T.T.T.N.9.P.T.T.T.T.T.T.T.T.T.T.W././.I.T.T.T.T.T.T.W.T.T.T.W.T.T.T.W.I.T.T.",
"T.T.T.T.T.T.T.T.5.U.9.2.c.T.T.T.W.W.T.T.T.T.T.T.T.T.T.T.T.W.!.W.T.T.T.T.T.T.T.T.T.T.T.T.T.T.T.T.T.T.",
"T.T.T.T.T.T.T.T.I.4.3.6.c.T.T.T.T.T.T.T.U.P.5.T.T.T.T.T.T.T.T.U.T.T.T.T.T.T.T.T.T.T.c.c.T.T.T.T.T.T.",
"T.T.T.T.T.T.T.W.5.*.q.u.v.T.T.T.T.I.W.T.5.6.P.T.T.T.T.T.T.T.T.5.5.T.W.T.T.T.T.T.T.c.c.T.T.T.T.T.T.T.",
"T.T.T.T.T.T.T.T.c.q.e.c.T.T.T.T.T.!.T.T.U.8.T.W.!.T.T.T.P.T.T.I.h.a.P.5.5.~.c.T.T.T.T.T.T.T.T.T.T.T.",
"T.T.T.T.T.T.T.T.T.T.T.T.T.T.T.T.z.c.T.T.T.T.T.I.I.T.T.T.5.4.5.9.3.<.9.5.<.m.v.T.T.T.T.T.U.T.T.T.T.T.",
"T.T.T.T.T.T.T.T.T.T.T.T.T.T.T.T.U.c.T.T.T.T.T.W.T.T.T.T.c.3.9.0.} w.m.5.&.r.v.T.T.T.T.T.5.5.c.v.T.T.",
"T.T.8.z.W.T.T.T.T.T.T.T.T.T.T.T.T.T.T.T.T.T.T.T.T.T.T.T.T.c.T.c.9.N.T.T.z.c.T.T.T.T.T.T.c.0.m.N.T.T.",
"T.T.3.3.T.T.T.T.T.T.T.T.T.T.T.T.T.T.T.T.T.T.T.T.T.T.T.T.T.W.T.T.W.W.T.T.W.T.T.T.T.T.T.T.U.*.t.v.T.T."
};
