/* XPM */
static char *_1bd9e9c6cac41badb6f301063366791yTEN8YE0nIycka2N[] = {
/* columns rows colors chars-per-pixel */
"50 50 108 2 ",
"   c None",
".  c #060606",
"X  c #080707",
"o  c #0B0B0B",
"O  c #170E08",
"+  c #17100A",
"@  c #1C140C",
"#  c #141414",
"$  c #1B1411",
"%  c #161816",
"&  c #191A17",
"*  c #1B1B1B",
"=  c #221A13",
"-  c #2A1C12",
";  c #241D1B",
":  c #281E18",
">  c #27201B",
",  c #2B231C",
"<  c #201F20",
"1  c #232323",
"2  c #2E2521",
"3  c #262728",
"4  c #272828",
"5  c #2C2C2C",
"6  c #332A22",
"7  c #392C26",
"8  c #352D2B",
"9  c #392F2C",
"0  c #333434",
"q  c #3D3834",
"w  c #3B3B3B",
"e  c #43372C",
"r  c #503C2F",
"t  c #523F30",
"y  c #785633",
"u  c #434343",
"i  c #4C4C4C",
"p  c #5B4D45",
"a  c #545454",
"s  c #585758",
"d  c #5B5C5B",
"f  c #645D59",
"g  c #5E5C60",
"h  c #615F61",
"j  c #646464",
"k  c #686768",
"l  c #6B6B6B",
"z  c #727272",
"x  c #777877",
"c  c #7B7C7C",
"v  c #865C2E",
"b  c #9B682E",
"n  c #8E6535",
"m  c #9B6830",
"M  c #A37236",
"N  c #A57339",
"B  c #A7793D",
"V  c #9B7565",
"C  c #96776B",
"Z  c #9F7C6C",
"A  c #A17C67",
"S  c #A57F6D",
"D  c #A37E6B",
"F  c #9F8C6D",
"G  c #A88C6D",
"H  c #B48974",
"J  c #AE9270",
"K  c #C49657",
"L  c #C39558",
"P  c #C49658",
"I  c #CDA37F",
"U  c #818081",
"Y  c #818181",
"T  c #838383",
"R  c #848484",
"E  c #868686",
"W  c #838383",
"Q  c #888888",
"!  c #89898A",
"~  c gray54",
"^  c gray55",
"/  c #8D8D8D",
"(  c #8E8E8E",
")  c #8F8F8F",
"_  c #909090",
"`  c #919292",
"'  c #929292",
"]  c gray58",
"[  c #979797",
"{  c #939393",
"}  c #9B9B9B",
"|  c #9F9F9F",
" . c #9C9C9C",
".. c #9F9FA0",
"X. c gray63",
"o. c #A2A3A3",
"O. c #A6A4A6",
"+. c #A7A7A7",
"@. c #A1A1A1",
"#. c gray68",
"$. c #ABABAB",
"%. c gray70",
"&. c #B2B2B2",
"*. c #BBBBBA",
"=. c gray74",
"-. c #C1C1C1",
";. c gray76",
":. c gray79",
/* pixels */
"                                                                                                    ",
"                                              X                 X                                   ",
"                                            X X               . X                                   ",
"                                            X 4 X   o X X o   X 4 o                                 ",
"                                            # 5 X o 0 0 w 0 % o 4 X                                 ",
"                                          o 5 0 % 5 w u k l d w # .                                 ",
"                                          . * 0 0 w u k z z z k w X                                 ",
"                                          X * 0 w u k z z z z z d *                                 ",
"                                        X % * 0 w u k z z z z z l w o                               ",
"                                        . % * 1 0 0 w k z z z z z d #                               ",
"                                        . % * * * o 1 w k z z z z d #                               ",
"                                        X % * * % * ! w w j z z l w o                               ",
"                                          X % * % * ..*.w * d l l 0 o                               ",
"                                          . % * % o 0 O.o.% o w g *                                 ",
"                                          X % % < 0 0 8 9 = $ 2 f %                                 ",
"                                            . o 5 w p S V V V H C ;                                 ",
"                                            X 5 & q Z I r 7 t G e                                   ",
"                                          % 1 a w # 6 D A J F e                                     ",
"                                      % 1 j ] u i # 1 ; ; , ;                                       ",
"                                    1 l ^ k } ] 4 % 1 4 0 i * X %                                   ",
"                                  % d o.-.#.d l i ! x * * 4 x * u %                                 ",
"                                  * i ] O.%.i i l ' w 1 l i c 1 o .                                 ",
"                                % j j a j ^ d E a x ^ E 0 5 0 x % %                                 ",
"                                * c a l | a j ' d k z z s 5 s j 1 x 1                               ",
"                                * d i c ! * * k ! s u u a c s u 1 U *                               ",
"                              % d s l | 4 % % * k ^ a j l d ' c 4 c *                               ",
"                              # d c j U * * 5 * 1 U h i c i c 1 # s *                               ",
"                            . . # 4 l 1 % 1 0 * X > : = , = , O . #                                 ",
"                            o . % * * . * 0 0 * - v N m N b M v + # .                               ",
"                          % i # * 0 0 # * 0 5 $ y M P B L B K n + # X                               ",
"                          * 0 o * w d 0 % 4 o # > @ = = , = = O . # % X                             ",
"                        % i 0 X * w k w 5 o * k T 3 # 0 a 0 % % o . # .                             ",
"                        * 0 o . * w d * 1 # j | #.o.5 * 0 * 5 } l # # .                             ",
"                      # i 0 X . % * 0 o . o k | #.=.U * % 4 ' -.} * # X                             ",
"                      X 0 # % * o # * 1 X # u x o.} s 5 1 U | +.+.* . * *                           ",
"                      % 5 X * 0 w s * # # s i k l s a * a z s z U * % w s *                         ",
"                    % a 0 o * w u l k d * k l i i d * # * k l i 1 % * w d #                         ",
"                    o 0 # * 0 u k z z d 1 z | x l d # % # k c ] k # * w d *                         ",
"                    X 5 X * 0 u k z j 1 j o.-.O.l * * 5 % k U *.} * % 1 u s %                       ",
"                    X 5 o * 0 w u j w % l +.;.+.j # * 5 # j o.:.%.* % * w d #                       ",
"                    o 5 X # * 0 w w * # j +.:.%.1 * 0 * . 5 ^ %.o.* # * w d #                       ",
"                    o 5 X . X * 0 * % X 0 ^ %.^ % * 0 * . * 5 0 5 X . X * 5 X                       ",
"                    o 5 o     o % X . * 0 0 0 1 X % *   . * 0 w 5 X     X X .                       ",
"                    o 4 o       o   X * u d 0 X   . X   . * w j w o         .                       ",
"                      o X         X * w k k 0 o         . * w j u * o                               ",
"                                  . * w j w #             X * w s 0 % X                             ",
"                                  . % 0 0 * .               X X # X . .                             ",
"                                  . X o X X .                                                       ",
"                                                                                                    ",
"                                                                                                    "
};
