/* XPM */
static char *ad167a9782234838ad3e4e623178f8e4TD6P8WCInPZEfhn9[] = {
/* columns rows colors chars-per-pixel */
"50 50 117 2 ",
"   c None",
".  c #0E0E0E",
"X  c #100F0E",
"o  c #10100F",
"O  c #100F10",
"+  c #0F1010",
"@  c #141414",
"#  c #181717",
"$  c #191817",
"%  c #161318",
"&  c #1B1B1B",
"*  c #221E15",
"=  c #211E1C",
"-  c #21201F",
";  c #2C251B",
":  c #2F291B",
">  c #362D1D",
",  c #3B311D",
"<  c #242423",
"1  c #282726",
"2  c #292826",
"3  c #2C2B2A",
"4  c #302F2D",
"5  c #2E302D",
"6  c #31322E",
"7  c #353533",
"8  c #383735",
"9  c #3A3936",
"0  c #3D3C3A",
"q  c #403E3C",
"w  c #3F403C",
"e  c #514427",
"r  c #594927",
"t  c #43413E",
"y  c #624F28",
"u  c #68542A",
"i  c #6B5A2C",
"p  c #7C6330",
"a  c #454442",
"s  c #484744",
"d  c #4A4946",
"f  c #4E4D4A",
"g  c #504F4D",
"h  c #52524E",
"j  c #555452",
"k  c #585754",
"l  c #5A5A56",
"z  c #5C5C5A",
"x  c #605F5B",
"c  c #63635E",
"v  c #656561",
"b  c #686764",
"n  c #686563",
"m  c #696867",
"M  c #6A6967",
"N  c #6A6A66",
"B  c #6A6B66",
"V  c #6C6967",
"C  c #6B6C66",
"Z  c #686868",
"A  c #6B6A69",
"S  c #6D6B69",
"D  c #6D6C69",
"F  c #6E6D69",
"G  c #6D6C6A",
"H  c #6D6E6A",
"J  c #6C6C6C",
"K  c #6C6C69",
"L  c #71726D",
"P  c #73726E",
"I  c #74736F",
"U  c #70706E",
"Y  c #737270",
"T  c #797874",
"R  c #7A7977",
"E  c #7C7B77",
"W  c #7B7A78",
"Q  c #807F7C",
"!  c #AD8C42",
"~  c #C39C44",
"^  c #CCA547",
"/  c #CEAA49",
"(  c #DCAF48",
")  c #EBBC4D",
"_  c #888784",
"`  c #8B8A86",
"'  c #91918E",
"]  c #979692",
"[  c #9B9A96",
"{  c #9F9E9A",
"}  c #A09F9C",
"|  c #A09F9F",
" . c #A2A19D",
".. c #A2A19E",
"X. c #A2A29E",
"o. c #A3A29E",
"O. c #A2A29F",
"+. c #A3A29F",
"@. c #A4A39E",
"#. c #A4A39F",
"$. c #A3A3A0",
"%. c #A4A3A0",
"&. c #A5A4A0",
"*. c #A6A5A1",
"=. c #A4A4A2",
"-. c #A5A4A2",
";. c #A7A6A2",
":. c #A7A6A4",
">. c #A6A6A5",
",. c #A8A7A4",
"<. c #A8A7A5",
"1. c #ABABA7",
"2. c #AAAAA9",
"3. c #ABABA9",
"4. c #ACACAA",
"5. c #AEADAB",
"6. c #B1B0AD",
/* pixels */
"                                                                                                    ",
"                                                                                                    ",
"                                                                                                    ",
"                                                                                                    ",
"                                                                                                    ",
"                                                                                                    ",
"                                                                                                    ",
"                                                                                                    ",
"                                                                                                    ",
"                                                                                                    ",
"                                                                                                    ",
"                                                                                                    ",
"                                                                                                    ",
"                                                                                                    ",
"                                                                                                    ",
"                                                                                                    ",
"            F m m m                                                                                 ",
"        F v 0 7 8 7 7 # @ @             3.4.3.4.1.3.                                                ",
"      c d a & # & @ & # @ # 3       6.%.o.$.o.o.o.o.4.                                              ",
"    v 7 # < # @ # + # @ . @ # & ' :.*.#.*.*.#.*.#.#.*.*.:.3.                                        ",
"  P 8 @ 1 j & . @ . @ @ @ # & # f { { o.*.*.#.*.#.#.*.#.o.} }     1 @ & & <                         ",
"            k < $ @ & < h k k j x F I [ *.*.o.*.#.#.#.#.` F v 3 = & @ 3 j k n V                     ",
"            v 1 # @ 3 s 3 3 3 1 t c v P ] #.o.o.o.o.%._ h 1 4 f f 3 4 s 3 3 3 3 s F Y               ",
"          S 8 & # 1 t 8 0 t a w 0 t c v T ] *.,.,.*.m a < & q 9 8 t 0 0 t w t t 8 d m T             ",
"          b 8 & 3 q a 8 a a d a t 8 s c v E Q Z J Z 1 3 7 9 t & 3 a 0 0 s a s d 0 0 f v W           ",
"            c < 0 9 7 a @ @ @ X 3 a 3 f g h t = # 1 1 a h 0 # 1 s 7 8 0 @ O @ @ 7 a 3 g c           ",
"            v 1 & 0 f & # ; > = & 1 k < # # 7 s < j l 7 # # < f 1 d q & & ; : = # 7 h < h z z       ",
"          F     1 9 f # * ! / i % < k - @ @ & # # & & & @ @ # & # d 0 # > ~ ^ e . 6 h & & & # 1     ",
"            3 l 6 8 f @ * ~ ) p @ < k = X @ # @ # # @ # @ @ # @ @ d 0 @ , ( ) r . 6 h & d < o & 1   ",
"            s l 5 8 f O @ r i , @ - z d t t a t a a t a t t a a t k 9 @ * y u : . 6 h & k 1 . &     ",
"            P Z 3 3 t 7 # @ # @ < 8 t t t t a t a a t a t t a a t a 0 6 # @ @ # 1 0 7 & 9 - @ <     ",
"                  # 7 k 3 1 3 1 t k & & @ # & @ & & # & @ @ # # # & 0 h 1 1 1 3 a f # # # @ # & &   ",
"                        v c c c F                                       c c c c                     ",
"                                                                                                    ",
"                                                                                                    ",
"                                                                                                    ",
"                                                                                                    ",
"                                                                                                    ",
"                                                                                                    ",
"                                                                                                    ",
"                                                                                                    ",
"                                                                                                    ",
"                                                                                                    ",
"                                                                                                    ",
"                                                                                                    ",
"                                                                                                    ",
"                                                                                                    ",
"                                                                                                    ",
"                                                                                                    ",
"                                                                                                    "
};
