/* XPM */
static char *result[] = {
/* columns rows colors chars-per-pixel */
"50 50 116 2 ",
"   c #2A2C2B",
".  c #373734",
"X  c #3D3D3D",
"o  c #3F403A",
"O  c #41413F",
"+  c #444542",
"@  c #474843",
"#  c #494A45",
"$  c #4D4E4B",
"%  c #4F5049",
"&  c #53544D",
"*  c #535F4F",
"=  c #555552",
"-  c #575852",
";  c #595A55",
":  c #555658",
">  c #535959",
",  c #5D5D5A",
"<  c #5A634C",
"1  c #5F605A",
"2  c #617945",
"3  c #64774F",
"4  c #61625D",
"5  c gray38",
"6  c #646A6A",
"7  c #6A6C6D",
"8  c #6E6F71",
"9  c #6C7272",
"0  c #747675",
"q  c #757B7B",
"w  c #7A7A78",
"e  c #64B93E",
"r  c #6ABC3E",
"t  c #74BE3E",
"y  c #7FC53C",
"u  c #50965D",
"i  c #529A59",
"p  c #589E5A",
"a  c #728858",
"s  c #5AA74E",
"d  c #5BA552",
"f  c #62AD47",
"g  c #63AC4D",
"h  c #6AAF4D",
"j  c #64B344",
"k  c #6CB645",
"l  c #6DB943",
"z  c #6DB24B",
"x  c #70B546",
"c  c #74BB43",
"v  c #7BBE46",
"b  c #73B44C",
"n  c #7AB54E",
"m  c #76B849",
"M  c #7CBA4B",
"N  c #61A653",
"B  c #65A951",
"V  c #6CAB53",
"C  c #6BA35B",
"Z  c #72AD53",
"A  c #79AC57",
"S  c #70A758",
"D  c #77AB5B",
"F  c #74B151",
"G  c #7CB352",
"H  c #7B8969",
"J  c #7BC042",
"K  c #81C43E",
"L  c #86C93C",
"P  c #8CCA3E",
"I  c #93CD3F",
"U  c #99D23C",
"Y  c #80BF47",
"T  c #82B74F",
"R  c #85BD4C",
"E  c #89BE4C",
"W  c #82B552",
"Q  c #85B950",
"!  c #8DBD54",
"~  c #85966F",
"^  c #83C146",
"/  c #8DC546",
"(  c #8EC940",
")  c #85C149",
"_  c #8BC24A",
"`  c #90C746",
"'  c #92CA43",
"]  c #8FC450",
"[  c #93C657",
"{  c #98C85F",
"}  c #98C860",
"|  c #99C16A",
" . c #9EC471",
".. c gray55",
"X. c #899085",
"o. c #989898",
"O. c #A4BA88",
"+. c #A7A7A5",
"@. c #A8A8A6",
"#. c #AAAAA8",
"$. c #B0B1AC",
"%. c #B6B7B2",
"&. c #B8B8B6",
"*. c #B7D98F",
"=. c #C5DCA9",
"-. c #C0C0BE",
";. c #D0E7B8",
":. c #C6C6C4",
">. c #CDCDCB",
",. c #D5D5D3",
"<. c #DAEBC4",
"1. c #E6E6E4",
"2. c #EBECE7",
"3. c #EDF5E1",
"4. c #F5F5F3",
"5. c #FFFFFB",
/* pixels */
"_ _ Q F v _ _ _ _ _ _ _ _ _ _ _ _ _ _ _ _ _ _ _ _ _ _ _ _ _ _ _ _ _ _ _ _ _ _ _ _ _ _ _ _ _ _ _ _ _ ",
"_ _ Q D b _ _ _ _ _ _ _ _ _ _ _ _ _ _ _ _ _ _ _ _ _ _ _ _ _ _ _ _ _ _ _ _ _ _ _ _ _ _ _ _ _ _ _ _ _ ",
"_ _ _ _ ) _ _ _ _ _ _ _ _ _ _ _ _ _ _ _ _ _ _ _ _ v ) / _ _ _ _ _ _ _ _ _ _ _ _ ` ` _ _ _ _ _ _ _ _ ",
"_ _ _ _ _ _ _ _ _ _ _ _ _ _ _ _ _ _ _ _ _ _ _ / _ c M R _ _ _ _ _ ) _ _ ) _ _ _ _ _ _ _ _ _ _ _ _ _ ",
"_ _ _ _ _ _ _ ^ _ _ _ _ _ _ _ _ _ R R ) _ _ _ _ _ c b n _ _ _ _ R _ _ _ ) _ _ _ _ _ _ _ _ _ _ _ _ _ ",
"_ _ _ _ _ _ _ z m T _ _ _ _ _ _ _ _ _ _ _ _ _ _ _ _ R E _ _ ) E _ _ _ _ _ _ _ _ _ _ J c ) _ _ _ _ _ ",
"_ _ _ _ _ _ _ F Z n _ _ _ _ _ _ _ _ _ ^ _ _ ^ R E _ _ _ _ _ _ _ _ _ _ _ _ _ _ _ _ _ ) b M R _ _ _ _ ",
"_ _ _ _ _ _ _ _ _ _ _ _ _ _ _ _ _ _ _ v ^ v l T _ _ _ _ _ _ _ _ _ _ _ _ _ _ _ _ _ _ _ V V M _ _ _ _ ",
"_ _ _ _ _ _ _ _ _ _ _ _ _ _ _ _ _ _ _ ' y h n Q _ _ _ _ _ _ _ R _ ) J _ _ _ _ ' _ _ _ _ R _ _ _ _ _ ",
"_ _ _ _ _ _ R R _ _ _ _ _ _ _ _ _ _ _ R g C G _ _ _ _ _ _ ) ^ _ _ J ^ ^ _ _ _ _ _ _ _ _ _ _ _ _ _ _ ",
"_ _ _ _ _ _ M R _ _ _ _ _ _ _ _ ^ / _ _ G T _ _ _ _ _ _ _ / L ^ ^ j ^ J J ) _ _ _ _ _ _ _ _ _ _ _ _ ",
"_ _ ) _ _ _ G G / _ _ _ _ _ _ ) t R _ _ _ _ _ _ E R _ _ _ / ^ J J b k M k ^ _ _ _ _ _ _ _ _ _ _ _ _ ",
"_ _ _ _ _ _ W W _ _ _ _ _ _ R R j n E _ _ _ _ _ Q F _ _ _ _ F Z N Z d b z _ _ _ _ _ _ _ _ _ _ _ _ _ ",
"_ _ _ _ _ _ _ _ ) ) _ _ _ _ _ _ R _ _ _ _ _ _ _ _ ] _ _ _ _ R _ R ] ) _ ) _ _ _ _ _ _ _ _ _ ` _ _ _ ",
"_ _ _ _ _ _ _ _ ) P / _ ) ) _ _ _ _ _ _ _ _ _ _ _ _ _ _ _ _ _ _ _ _ _ _ _ _ _ _ _ ' _ _ _ _ _ _ _ _ ",
"_ _ _ _ _ ) ) ) / c c v ^ c ) _ _ _ _ _ _ _ _ _ _ _ _ _ _ _ _ _ _ _ _ _ _ _ _ _ _ U ' M _ _ _ _ _ _ ",
"_ _ _ _ _ ) c v m d j v ) e Y _ _ _ _ _ _ _ R Q _ _ _ _ _ _ _ _ ) _ _ _ Q _ _ _ _ _ M F Q _ _ _ _ _ ",
"_ _ _ _ _ ) b ) b p b _ ) r R _ _ _ _ _ _ _ E R _ _ _ / _ _ _ _ ] ] ) _ Q ] _ _ _ ) s G Q _ _ _ _ _ ",
"_ _ _ _ _ _ _ _ E R ) _ X.- 9 7 7 7 7 4 , { _ _ _ _ ^ ^ ;.6 9 7 7 6 q : q < ) _ _ _ m M _ _ _ _ _ _ ",
"_ _ _ _ _ _ _ _ _ _ _ _ [ O.: $ : + & = ; =._ *.,.1.>.t 4.= = = = : # $   _ _ _ _ _ _ _ _ _ _ _ _ _ ",
"_ _ G W _ _ _ _ _ _ _ _ _ } $ ; - : ; , ; #./ 3.0 w >.m :.= = = ; - , . 0 [ _ _ _ _ _ _ _ _ _ Q _ _ ",
"_ _ M R _ _ _ _ _ _ _ ) ^ _  .$ - ; ; ; , $ 2.5.# @ &.2.@ - - - - : + &._ _ _ _ ` ` ) _ _ _ ) Q Q _ ",
"_ _ c k ) _ _ _ _ _ _ / K v R ~ & ; = ; $ , # % ; & & % , = = - - - , _ _ _ _ _ ' ( Q _ _ _ _ _ _ _ ",
"_ _ n n _ _ _ _ _ _ _ _ K x Q | % , = 1 & % ; 4 ; - & & & = = ; : = -._ _ E _ _ ) ) ) _ _ _ _ _ _ _ ",
"_ _ _ _ _ _ _ _ _ _ ) _ ) R _ _ < , & ; ; & & % % - & & 4 & , & : + [ _ Q G _ _ _ _ _ _ _ _ _ _ _ _ ",
"_ _ _ _ _ _ _ _ _ ) ) _ _ _ _ _ _ 2 @ & 4 o & - - - ; & & - & X $ + _ _ _ _ _ _ _ _ _ _ _ _ _ _ _ _ ",
"_ _ _ _ _ ^ ) E _ _ ^ _ _ _ _ _ _ _ ! H , 4 1 % - - & % # = 7 @...o._ _ _ _ _ _ _ ^ _ _ _ _ E Q _ _ ",
"_ _ _ _ _ ^ c M R _ _ _ _ _ _ _ _ _ _ _ _ / 1 , - & 1 . $.<._ / _ _ _ ] _ _ _ _ _ P v R _ _ R E _ _ ",
"_ _ _ _ _ ) k m T _ _ _ _ _ _ _ _ _ _ _ _ _ _ 1 = 1 O +._ _ _ ) J _ M ) _ _ _ _ E M z m R _ _ _ _ _ ",
"_ _ _ _ _ T Z m R _ _ _ _ ) _ _ _ _ _ _ _ _ _ _ = = X _ _ _ _ ) y M j M Q _ _ _ _ G S m R _ _ _ _ _ ",
"_ _ _ _ _ _ _ _ _ _ _ _ _ v M ) _ _ _ _ _ _ _ _ 3 X 0 ) _ _ _ _ j j b Q _ _ _ _ _ _ _ _ _ _ _ _ _ _ ",
"_ _ _ _ _ _ / _ _ _ _ _ ) n b m _ _ _ _ _ _ _ ' J a ) k M / _ _ z b G E _ _ _ _ _ _ _ _ _ _ _ _ _ _ ",
"_ _ _ _ _ ' / _ _ _ _ _ _ E E R _ _ _ ) J _ / L ) J ) j b _ ` _ E E _ _ _ ) _ _ _ _ / _ _ _ _ _ _ _ ",
"_ _ R _ _ _ _ _ _ _ _ _ _ _ _ _ _ _ _ _ J J ^ f m J v m A Q _ _ / _ _ _ _ R _ _ _ _ / / _ _ _ _ ` _ ",
"_ _ _ _ _ _ _ _ _ _ _ _ _ _ _ _ _ _ _ _ ) y z g j b j M W E _ _ _ _ _ _ _ _ _ _ _ _ _ _ _ R _ _ _ _ ",
"_ _ _ _ _ _ _ _ _ _ _ _ _ _ _ _ _ _ _ _ ) c j V B V b W _ _ _ _ _ _ _ _ _ _ ) _ _ _ _ _ _ _ _ _ _ _ ",
"_ _ _ _ _ _ _ _ _ _ _ _ _ ` _ _ _ _ _ _ _ _ _ _ _ _ _ _ _ _ _ _ _ _ _ _ _ ^ y _ / _ _ _ _ _ _ _ _ _ ",
"_ _ _ _ Y _ _ / _ _ _ R _ / _ _ _ _ _ _ _ _ _ _ _ _ _ _ _ _ _ _ _ _ ^ _ E E c v v ) v _ E _ _ _ _ _ ",
"_ _ _ _ L ) E E _ _ _ E _ _ _ U / _ _ _ _ _ _ _ _ _ _ _ ` _ _ _ _ _ _ t c n g j m R r n Q _ _ _ _ _ ",
"_ _ _ _ t b T E _ _ _ _ _ _ E ' m J _ _ _ _ _ _ _ _ _ _ _ E _ _ _ _ _ c T z i g R ) e n E _ _ _ _ _ ",
"_ _ _ _ ) R _ _ _ _ _ _ _ _ E G z v ) _ _ _ _ _ _ _ _ _ _ _ _ _ _ _ _ R _ _ n R E / Y R _ _ / ` _ _ ",
"_ _ _ _ _ _ _ _ _ _ / ) _ _ _ Q M ^ ) _ _ _ _ _ _ _ _ _ _ ` ` ` _ _ _ _ _ _ _ _ _ _ / _ _ _ _ / _ _ ",
"_ _ _ _ _ _ _ _ v / M x R _ _ _ _ _ _ _ _ _ _ _ _ _ _ _ _ ` _ _ _ _ _ _ _ _ / _ _ / E _ _ _ _ _ _ _ ",
"_ _ ) _ _ _ _ _ L c z b Q _ _ _ _ _ _ _ ) ) v ) _ _ _ _ _ _ _ ) _ _ _ _ _ _ _ _ _ E T T _ _ _ _ _ _ ",
"_ _ _ _ _ _ _ _ v d V G E _ _ _ _ / _ _ M z R _ _ _ _ _ _ _ _ J v _ _ _ _ _ _ _ _ _ R _ _ _ _ _ _ _ ",
"_ _ _ _ _ _ _ _ T C Z E _ _ _ _ _ _ _ _ ) M _ _ ` _ _ _ ) ) _ _ U J ^ ^ v E R E _ _ _ _ _ _ _ _ _ _ ",
"_ _ _ _ _ _ _ _ _ _ _ _ _ _ _ _ R R _ _ _ _ _ ` ` _ _ _ J v M M b j m v j T E _ _ _ _ _ R _ E _ _ _ ",
"_ _ _ _ _ _ _ _ _ _ _ _ _ _ _ _ R R _ _ _ _ _ _ _ _ _ _ ) z M B u C W M s A E _ _ _ _ _ v v E E _ _ ",
"_ _ m ) _ _ _ _ _ _ _ _ _ _ _ _ _ _ _ _ _ _ _ _ _ _ _ _ _ Q _ ) M Q _ _ M Q _ _ _ _ _ _ _ B Q Q _ _ ",
"_ _ z Z _ _ _ _ _ _ _ _ _ _ _ _ _ _ _ _ _ _ _ _ _ _ _ _ _ _ _ _ _ _ _ _ _ _ _ _ _ _ _ _ ) d S Q _ _ "
};
