/* XPM */
static char *_2154409cdf243fde22dad3e424b0c56wfAdlrqiu8QBBm3j[] = {
/* columns rows colors chars-per-pixel */
"50 50 68 1 ",
"  c #64B93E",
". c #6ABC3E",
"X c #74BE3E",
"o c #7DC43D",
"O c #50965D",
"+ c #529A59",
"@ c #589E5A",
"# c #5AA74E",
"$ c #5BA552",
"% c #62AD47",
"& c #63AC4D",
"* c #6AAF4D",
"= c #64B344",
"- c #6CB645",
"; c #6DB943",
": c #6DB24B",
"> c #71B646",
", c #74BB43",
"< c #7BBE45",
"1 c #73B44C",
"2 c #7AB54E",
"3 c #76B849",
"4 c #7CBA4B",
"5 c #61A653",
"6 c #65A951",
"7 c #6CAB53",
"8 c #6BA35B",
"9 c #72AD53",
"0 c #79AC57",
"q c #70A758",
"w c #77AB5B",
"e c #74B151",
"r c #7CB352",
"t c #7BC042",
"y c #81C53D",
"u c #86C93D",
"i c #8CCA3E",
"p c #93CD3F",
"a c #90D037",
"s c #99D23C",
"d c #80BF47",
"f c #82B74F",
"g c #85BD4C",
"h c #89BE4D",
"j c #82B452",
"k c #85B751",
"l c #85B950",
"z c #86BA51",
"x c #87BC50",
"c c #80C043",
"v c #84C143",
"b c #83C441",
"n c #86C443",
"m c #82C047",
"M c #87C247",
"N c #89C444",
"B c #8EC647",
"V c #8EC940",
"C c #83C048",
"Z c #84C048",
"A c #8BC24A",
"S c #8CC34A",
"D c #8CC448",
"F c #8AC04C",
"G c #90C745",
"H c #93CB41",
"J c #97CE40",
"K c #90C845",
/* pixels */
"AAze<AAAAAAAAAAAAAAAAAAAAAAAAAAAAAAAAAAAAAAAAAAAAA",
"AAxw1AAAAAAAAAAAAAAAAAAAAAAAAAAAAAAAAAAAAAAAAAAAAA",
"AAAFAAAAAAAAAAAAAAAAAAAAA<AAAAAAAAAAAAASGBAAAAAAAA",
"AAAAAAAAAAAAAAAAAAgAAAAAA,4gAAAAAAAAZAAADSAAAAAAAA",
"AAAAAAAcAAAAAAAAAggAAAAAA,:2AAAAgADAgAAAAAAAAAAAAA",
"AAAAAAA13fAAAAAAAAAAAAAAAAgAAAAAAASAAAAAAS<<CAAAAA",
"AAAAAAAe92AAAAAAAAAZAAZhAAAAAAAAAAAAAAAAAAZ;4gAAAA",
"AAAAAAAAAAAAAAAAAAA<m<;fAAAAAAAAAAAAAAAAAAA774AAAA",
"AAAAAAAAAAAAAAAAAAAHo:1hAAAAAAAAAMtAAASDAAAggFAAAA",
"AAAAAAggAAAAAAAAAAAg68rAAAAAAmcAAtmZAASDAAAAAAAAAA",
"AAAAAAggAAAAAAAAvAAArfAAAAAAAAunm=dt<ZAAAAAAAAAAAA",
"AAgAAArrAAAAAAAMXZAASAAAhgAAASM<m1;<;mAAAAAAAAAAAA",
"AAAAAAfjSAAAAAgg=2AAAAAAfrFAAAr96e51:gAAAAAAAADSAA",
"AAAAAAAAZMSAAAAAghAAAAAAAFAAAAhgghgAAAAAAAAAAABBAA",
"AAAAAAAAZiDAAZAAAAAAAAAAAAAAAAAAAAAAAAAAAKDAAAAAAA",
"AAAAAdmAA,,<m,AAAAAAAAAAAAAAAAAAAAAAAAAAAJp<AAAAAA",
"AAAAAZ,<3$=dM <SAAAAAAggAAAAAAAAAAAAgAAAAS41khAAAA",
"AAAAAA1Z1@1AZ.<SAAZAAAhgAAAAAAAAAZAAhFAAAZ&ezAAAAA",
"AAAAAAAAAgAAAAAAAA,mSAAAAAbMAAAAAochhAAAAZ1rAAAAAA",
"AAAAAAAAAAAAAAAAAM>gAAAAAAu,AAAASaykhAAAAASAAAAAAA",
"AArjAAAAAAAAAAAAAZ3gAAAAAAM4AAAASN<hhAAAAAAAAAAhAA",
"AA4dAAAAAASZCAAAAASAAAAAAAASAAAAAg1MAAAAGGgAAAAfgA",
"AS;-ZAAAAADAy<dhAAAAAAAAAAAAAAAAAAAAAAAAHVgAAAAAAA",
"AA41AAAAAAAAy>zhAAAAAAAAAAAAAAAAAAAAAgAAZCgAAAAAAA",
"AASSAAAAAZAAZghAAAAAAAZZAAAAAAAAAAAAgjAAAAAAAAAAAA",
"AAAAAAAAAZZAAAAAAAAAAS<>3AAAghAAAAAAAAAAAAAAAAAAAA",
"AAAAAmZhAAgAAAAAAAAAAAd32AAAggAAAAAAAAAAAmZAAAhgAA",
"AAAAAm,4hAAASBAAAAAAAAAAAAAAAAAAAAAAAAAAAitdSAggAA",
"AAAAAZ;1gAAAAAAAAAAAAAAAAAAAAAAmMA<dAAAAh4:1gAAAAA",
"AAAAAz93gAAAAMAAAAAAAAAAAAAAAAAMX<=4gAAAAr91gAAAAA",
"AAAAAAAAAAAAS3<ZAAAAAAAAZAAZAAAZ=::ghAAAAAAAAAAAAA",
"AAAASSAAAAAASe13AAAAAAApoAA-4SSA:1rhAAAAAAAAAAAAAA",
"AAAASKDAAAAAAgggAAAMtAMuNCZ=1SBSAgSAAgAAAABSAAAAAA",
"AAgAASAAAAAAAAAAAAAAttM%3<<,rgSAAAAAAAAAAABSAAASBA",
"AAAAAAAAAAAAAAAAAAAAm,>&=1:4ggAAAAAAAAAAAAAAAAAASA",
"AAAAAAAAAAAAAAAAAAAAZ,:7&7:jAAAAAAAAAZAAAAAAAAAAAA",
"AAAAAAAAAAAASBAAAAAAAAAAAAAAAAAAAAAAAMtASAAAAAAAAA",
"AAAAmAAAAAAgASAAAAAAAAAAAAAAAAAAAAMMhh,<<MtAhAAAAA",
"AAAAuMhAAAAAAAAsBAAAAAAAAAADDAAAAAMt32&=3d.4zAAAAA",
"AAAAX:jhAAAAAAAH3mAAAAAAAAAAAAAAAAA>4*+6gZ 1hAASAA",
"AAAAZfhAAAAAAAhr:,ZAAAAAAAAAAAAAAAAgAg4gAAdgAADGAA",
"AAAAAAAAZAAZAAAz4mAAAAAAAAAASGKBAAAAAASAAASAAASBAA",
"AAAAAAAA<M4;gAAASSAAAAAAAAAAASDSAAAAAAAAAAAAAAAAAA",
"AAAAAAAAN,:1gAAAAAAAZC<AAAAAAAAZAAAAAAAAAAffAAAAAA",
"AAAAAAAS<$7rhAAAABSA41CAAAAAAAA<<ASAAAAAAggAAAAAAA",
"AAAAAAAAf79gAAAAADAAZ3ASDAAACAABstm<<FgAAAAAAAAAAA",
"AAAAAAAAAAAAAAAAdgAAAAABBAAA<,<4:=4<=jhAAAAAZAAAAA",
"AAAAAAAAAAAAAAAAZgAAAAASAAAAg:46O8j4#0hAAAAA<<ghAA",
"AA3dSAAAAAAAAAAAAAAAAAAAAAAAAgAg4zAAdgAAAAAAg6jzAA",
"AA::AAAAAAAAAAAAAAAAAAAAAAAAASAASSAASAAAAAAAZ$qhAA"
};
