/* XPM */
static char *s68avXwmy1ydzat_png[] = {
/* columns rows colors chars-per-pixel */
"50 50 180 2 ",
"   c #060605",
".  c #080707",
"X  c #090A07",
"o  c #0C0C0C",
"O  c #170E08",
"+  c #17100A",
"@  c #161E0F",
"#  c #1C140C",
"$  c #141414",
"%  c #1B1411",
"&  c #161D11",
"*  c #191D14",
"=  c #1B1B1B",
"-  c #231A12",
";  c #281E18",
":  c #271D18",
">  c #18200E",
",  c #1B2313",
"<  c #1D2519",
"1  c #172213",
"2  c #202916",
"3  c #24241A",
"4  c #2B231C",
"5  c #242C1C",
"6  c #283717",
"7  c #273816",
"8  c #263518",
"9  c #29351B",
"0  c #2B3A1B",
"q  c #26381E",
"w  c #201F20",
"e  c #1F2020",
"r  c #242424",
"t  c #272826",
"y  c #262728",
"u  c #272828",
"i  c #2C2C2C",
"p  c #2C2A21",
"a  c #372D28",
"s  c #2B3223",
"d  c #263A22",
"f  c #2F3E20",
"g  c #323F22",
"h  c #333333",
"j  c #373836",
"k  c #3B3B3B",
"l  c #3D3834",
"z  c #503C2F",
"x  c #523F30",
"c  c #31411E",
"v  c #334223",
"b  c #394D22",
"n  c #3A482C",
"m  c #404C27",
"M  c #585E34",
"N  c #785633",
"B  c #5C7E33",
"V  c #434343",
"C  c #4B4B4B",
"Z  c #5B4D45",
"A  c #50514F",
"S  c #535453",
"D  c #575856",
"F  c #585758",
"G  c #5B5C5B",
"H  c #645D59",
"J  c #5E5C60",
"K  c #615F61",
"L  c #646464",
"P  c #686768",
"I  c #6B6B6B",
"U  c #727272",
"Y  c #777877",
"T  c #7B7C7C",
"R  c #865C2E",
"E  c #9B682E",
"W  c #8E6535",
"Q  c #9B6830",
"!  c #A37236",
"~  c #A57339",
"^  c #A7793D",
"/  c #9B7565",
"(  c #9B7A6C",
")  c #A47F6C",
"_  c #A17C67",
"`  c #548B33",
"'  c #678E38",
"]  c #6A913B",
"[  c #6D9C3C",
"{  c #639F39",
"}  c #739F3E",
"|  c #5BA43D",
" . c #67A23C",
".. c #6EAE3B",
"X. c #74A13F",
"o. c #71AE3E",
"O. c #7AAD3F",
"+. c #64B93E",
"@. c #6ABC3E",
"#. c #74BD3F",
"$. c #7EB434",
"%. c #79C13F",
"&. c #5C9549",
"*. c #589E5A",
"=. c #488653",
"-. c #6B9A43",
";. c #759F4D",
":. c #609351",
">. c #59A64D",
",. c #5BA552",
"<. c #66A748",
"1. c #75A441",
"2. c #79A742",
"3. c #74AB43",
"4. c #7CAE43",
"5. c #7DAB48",
"6. c #6DB546",
"7. c #6EB24B",
"8. c #66B543",
"9. c #7EB144",
"0. c #73BB43",
"q. c #7BBE45",
"w. c #74B44C",
"e. c #7BB34C",
"r. c #76B849",
"t. c #7DBA4B",
"y. c #70B546",
"u. c #6DAB54",
"i. c #67AA52",
"p. c #72AD54",
"a. c #70A758",
"s. c #78AC59",
"d. c #74B152",
"f. c #7EB551",
"g. c #7BC043",
"h. c #88BB3D",
"j. c #81C43D",
"k. c #8ECB3F",
"l. c #87C83C",
"z. c #94CC3F",
"x. c #81B345",
"c. c #81BF47",
"v. c #82B74F",
"b. c #85BD4C",
"n. c #89BE4C",
"m. c #82B551",
"M. c #85B950",
"N. c #9F8D6C",
"B. c #A88C6D",
"V. c #AE9270",
"C. c #B48974",
"Z. c #C49658",
"A. c #C49657",
"S. c #CDA37F",
"D. c #83C146",
"F. c #8EC546",
"G. c #85C148",
"H. c #86C149",
"J. c #89C14A",
"K. c #8AC14A",
"L. c #8BC24A",
"P. c #8AC24A",
"I. c #89C249",
"U. c #8CC34A",
"Y. c #8DC448",
"T. c #8BC24A",
"R. c #8EC940",
"E. c #90C746",
"W. c #92CA43",
"Q. c #838383",
"!. c #8C8C8C",
"~. c #939393",
"^. c #9C9C9C",
"/. c #9F9FA0",
"(. c #A2A2A3",
"). c #ACACAC",
"_. c #B2B2B2",
"`. c #BCBCBC",
"'. c #C2C2C2",
"]. c gray79",
/* pixels */
"L.L.M.d.q.L.L.L.L.L.L.L.L.L.L.L.L.L.L.L.L.L.L.x.L.L.L.L.L.L.L.L.x.L.L.L.L.L.L.L.L.L.L.L.L.L.L.L.L.L.",
"L.L.M.s.w.L.L.L.L.L.L.L.L.L.L.L.L.L.L.L.L.L.1.b x.L.L.L.L.L.L.1.b x.L.L.L.L.L.L.L.L.L.L.L.L.L.L.L.L.",
"L.L.L.K.L.L.L.L.L.L.L.L.L.L.L.L.L.L.L.L.L.x.8 , X.q.4.4.4.x.x.6 , X.L.L.L.L.L.U.E.F.L.L.L.L.L.L.L.L.",
"L.L.L.L.L.L.L.L.L.L.L.L.L.L.L.L.L.L.b.L.L.4., u 8 ` 9 , , 0 ] , u 0 x.L.G.L.L.L.Y.U.L.L.L.L.L.L.L.L.",
"L.L.L.L.L.L.L.D.L.L.L.L.L.L.L.L.L.b.b.L.L.X.2 i o 1 h j j j 5 $ u < x.L.b.L.L.L.L.L.L.L.L.L.L.L.L.L.",
"L.L.L.L.L.L.L.y.r.v.L.L.L.L.L.L.L.L.L.L.9.0 i j $ i j V P I G j $ , 9.L.L.L.L.L.L.U.q.q.G.L.L.L.L.L.",
"L.L.L.L.L.L.L.d.p.e.L.L.L.L.L.L.L.L.L.G.4.@ = j j j V P U U U P j < 9.L.L.L.L.L.L.L.G.6.t.b.L.L.L.L.",
"L.L.L.L.L.L.L.L.L.L.L.L.L.L.L.L.L.L.L.q.[ @ = j j V P U U U U U G 5 X.L.L.L.L.L.L.L.L.u.u.t.L.L.L.L.",
"L.L.L.L.L.L.L.L.L.L.L.L.L.L.L.L.L.L.L.h.7 $ = j j V P U U U U U I k 0 x.L.L.U.Y.L.L.L.b.b.K.L.L.L.L.",
"L.L.L.L.L.L.b.b.L.L.L.L.L.L.L.L.L.L.L.4.& $ = r h j k P U U U U U G 5 4.L.L.U.Y.L.L.L.L.L.L.L.L.L.L.",
"L.L.L.L.L.L.b.b.L.L.L.L.L.L.L.L.D.L.L.4.& $ = = = o r k P U U U U G 5 o.q.G.L.L.L.L.L.L.L.L.L.L.L.L.",
"L.L.b.L.L.L.f.f.L.L.L.L.L.L.L.H.#.G.L.x.0 $ = = $ = !.j j L U U I k 1 3.6.D.L.L.L.L.L.L.L.L.L.L.L.L.",
"L.L.L.L.L.L.v.m.U.L.L.L.L.L.b.b.8.e.L.L.X.* $ = $ = /.`.j = G I I j d <.7.b.L.L.L.L.L.L.L.L.Y.U.L.L.",
"L.L.L.L.L.L.L.L.G.H.U.L.L.L.L.L.b.n.L.L.4.@ $ = $ o h (.(.$ o k J s 1.L.L.L.L.L.L.L.L.L.L.L.F.F.L.L.",
"L.L.L.L.L.L.L.L.G.k.Y.L.L.G.L.L.L.L.L.L.x.6 $ $ w h h a a - % p H 5 9.L.L.L.L.L.L.E.Y.L.L.L.L.L.L.L.",
"L.L.L.L.L.c.D.L.L.0.0.q.D.0.L.L.L.L.L.L.L.X.@ o i k Z ) / / / C.( m x.L.L.L.L.L.L.W.z.q.L.L.L.L.L.L.",
"L.L.L.L.L.G.0.q.r.,.8.c.H.+.q.U.L.L.L.L.L.X., i = l ( S.z a x B.M 4.L.L.b.L.L.L.L.U.t.w.M.n.L.L.L.L.",
"L.L.L.L.L.L.w.G.w.*.w.L.G.@.q.U.L.L.G.9.} g r S j $ a ) _ V.N.M 4.G.L.L.n.K.L.L.L.G.i.d.M.L.L.L.L.L.",
"L.L.L.L.L.L.L.L.L.b.L.L.L.L.L.L.L.L. .f s L ~.V C $ r : : 4 9 ] x.%.D.n.n.L.L.L.L.G.y.f.L.L.L.L.L.L.",
"L.L.L.L.L.L.L.L.L.L.L.L.L.L.L.L.L.X.n I !.P ^.~.u $ r u h C e & v $.j.M.n.L.L.L.L.L.U.L.L.L.L.L.L.L.",
"L.L.f.m.L.L.L.L.L.L.L.L.L.L.L.L.x.v G (.'.).G I C !.Y = = u Y = V v o.n.n.L.L.L.L.L.L.L.L.L.L.n.L.L.",
"L.L.t.b.L.L.L.L.L.L.U.G.G.L.L.L.1.5 C ~.(._.C C I !.j y I C T y o @ <.H.L.L.L.L.E.E.b.L.L.L.L.v.b.L.",
"L.U.6.6.G.L.L.L.L.L.Y.L.j.q.b.5.v L L S L !.G Q.S Y !.Q.j i j Y $ 5 2.L.L.L.L.L.W.R.b.L.L.L.L.L.L.L.",
"L.L.t.w.L.L.L.L.L.L.L.L.j.y.M.4.s T S I ^.S L ~.G P U U D i F L r Y n x.L.b.L.L.G.G.b.L.L.L.L.L.L.L.",
"L.L.U.U.L.L.L.L.L.G.L.L.G.b.n.X.s G C T !.= = P !.D V V S T D V r Q.s 4.b.m.L.L.L.L.L.L.L.L.L.L.L.L.",
"L.L.L.L.L.L.L.L.L.G.G.L.L.L.9.g G D I ^.u $ $ = P !.S L I G ~.T u T s 4.L.L.L.L.L.L.L.L.L.L.L.L.L.L.",
"L.L.L.L.L.D.G.n.L.L.b.L.L.L.X.< G T L Q.= = i = r Q.K C T C T r $ D n x.L.L.L.L.L.D.G.L.L.L.n.b.L.L.",
"L.L.L.L.L.D.0.t.n.L.L.L.U.x.6   $ u I y $ r j = . 4 ; - 4 - 4 O   < [ L.L.L.L.L.L.k.g.b.U.L.b.b.L.L.",
"L.L.L.L.L.G.6.w.b.L.L.L.L.1.<   $ = =   = j j = ; R ~ Q ~ E ! R + $ 8 9.L.L.L.L.n.t.6.w.b.L.L.L.L.L.",
"L.L.L.L.L.M.p.r.b.L.L.L.x.v C $ = j h $ = j i % N ! Z.^ Z.^ A.W + $ & -.b.L.L.L.L.f.p.w.b.L.L.L.L.L.",
"L.L.L.L.L.L.L.L.L.L.L.L.1.5 j o = k G j $ u o $ 4 # - - 4 - - O   $ $ 6 9.L.L.L.L.L.L.L.L.L.L.L.L.L.",
"L.L.L.L.U.U.L.L.L.L.L.x.v A h o = k P k i o = P Q.y $ h S h $ $ o   $ @ 4.L.L.L.L.L.L.L.L.L.L.L.L.L.",
"L.L.L.L.U.E.Y.L.L.L.L.1.s j o   = j G = y $ L ^.)./.i = j = i ^.I $ $ , 9.b.L.L.L.L.F.U.L.L.L.L.L.L.",
"L.L.b.L.L.U.L.L.L.L.9.v A j o   $ = h o   o P ^.).`.Q.= $ u ~.'.^.= $ , X.L.L.L.L.L.F.U.L.L.L.U.F.L.",
"L.L.L.L.L.L.L.L.L.L.4., h $ $ = o $ = y o $ V Y (.^.D i y Q.^.).).=   = v 2.L.L.L.L.L.L.L.L.L.L.U.L.",
"L.L.L.L.L.L.L.L.L.L.1.5 i o = h j D = $ $ D C P I D S = S U D U Q.= $ j D v 9.L.L.L.L.L.L.L.L.L.L.L.",
"L.L.L.L.L.L.L.L.L.9.v S h o = j V I P G = P I C C G = $ = P I C y $ = k G 5 ..L.U.L.L.L.L.L.L.L.L.L.",
"L.L.L.L.D.L.L.L.L.4.< h $ = h V P U U G y U ^.Y I G $ $ $ P T ~.L $ = j G s { q.q.H.g.L.n.L.L.L.L.L.",
"L.L.L.L.l.H.n.L.L.4.< i o = j V P U L y L (.'.(.I = = i $ P Q.`.^.= $ r V D d | r.b.@.t.M.L.L.L.L.L.",
"L.L.L.L.#.7.m.n.L.4.< i o = h j V L j $ I ).'.).L $ = i $ L (.]._.= $ = k G < &.b.G.+.w.n.L.L.U.L.L.",
"L.L.L.L.G.v.n.L.L.4.< i o $ = j j j = $ L ).].).y = h =   i !._.(.= $ = j G 5 2.L.L.b.b.L.L.Y.E.L.L.",
"L.L.L.L.L.L.L.L.G.4.< i o @ , = h = $ o h !._.!.$ = h s X = i h i o @ , = i , 4.L.L.U.L.L.L.U.F.L.L.",
"L.L.L.L.L.L.L.L.q.O.1 i < X.X.6 = & X = h j h t * $ s ] @ = h j i , X.1.0 & > 4.L.L.L.L.L.L.L.L.L.L.",
"L.L.L.L.L.L.L.L.l...q u < 9.L.1.b B @ = V G j , ' 6 c X.@ = k L j < 1.L.x.} b 9.L.L.v.v.L.L.L.L.L.L.",
"L.L.L.L.L.L.L.U.q.,.&.q 0 x.L.L.2.6 = j P P j c x.x.x.x.6 = j L V = 6 1.L.L.x.L.L.b.b.L.L.L.L.L.L.L.",
"L.L.L.L.L.L.L.L.v.u.p.9.x.L.L.L.9., = k L k 5 2.Y.L.L.L.1.6 = j D h $ 8 o.K.b.L.L.L.L.L.L.L.L.L.L.L.",
"L.L.L.L.L.L.L.L.L.L.L.L.L.L.L.L.3., $ h j = , x.F.L.L.L.q. .8 , < 1 @ 7 | m.n.L.L.L.L.L.G.L.L.L.L.L.",
"L.L.L.L.L.L.L.L.L.L.L.L.L.L.L.L.9.q , 2 2 , 0 x.L.L.L.L.b.7.3.&.=.:.;.3.>.s.n.L.L.L.L.L.q.q.b.n.L.L.",
"L.L.r.b.U.L.L.L.L.L.L.L.L.L.L.L.L.x.9.9.9.9.x.L.L.L.L.L.L.b.L.b.t.M.L.L.b.b.L.L.L.L.L.L.b.i.m.M.L.L.",
"L.L.7.7.L.L.L.L.L.L.L.L.L.L.L.L.L.L.L.L.L.L.L.L.L.L.L.L.L.U.L.L.U.U.L.L.U.L.L.L.L.L.L.L.G.,.a.n.L.L."
};
