/* XPM */
static char *ee4f6e4bb77840daf6e3e22b92cd756eoW0ZzNiEKbRkdKof[] = {
/* columns rows colors chars-per-pixel */
"50 50 180 2 ",
"   c #060605",
".  c #080707",
"X  c #090A07",
"o  c #080708",
"O  c #0C0C0C",
"+  c #170F07",
"@  c #180F0C",
"#  c #15100D",
"$  c #1B120C",
"%  c #161D0E",
"&  c #100F10",
"*  c #141414",
"=  c #1A1511",
"-  c #161D11",
";  c #191F11",
":  c #161718",
">  c #1B1B1B",
",  c #231A12",
"<  c #291E14",
"1  c #261D1B",
"2  c #1A230F",
"3  c #1B2313",
"4  c #1F2519",
"5  c #1A2919",
"6  c #27201A",
"7  c #2B221B",
"8  c #242B1C",
"9  c #2C2E1D",
"0  c #243317",
"q  c #283617",
"w  c #273518",
"e  c #293619",
"r  c #26391A",
"t  c #2D3B1C",
"y  c #1E2020",
"u  c #242424",
"i  c #2D2621",
"p  c #272C24",
"a  c #282F20",
"s  c #272728",
"d  c #2C2C2C",
"f  c #382F2D",
"g  c #372B25",
"h  c #2B3223",
"j  c #2E302D",
"k  c #313E22",
"l  c #31302F",
"z  c #333333",
"x  c #373836",
"c  c #373738",
"v  c #3B3B3B",
"b  c #3C3835",
"n  c #513D30",
"m  c #344323",
"M  c #394C21",
"N  c #3C482C",
"B  c #414827",
"V  c #575833",
"C  c #515632",
"Z  c #795530",
"A  c #597D32",
"S  c #434343",
"D  c #474648",
"F  c #4B4C4B",
"G  c #474A4A",
"H  c #5C4D47",
"J  c #50524F",
"K  c #545454",
"L  c #575856",
"P  c #5B5C5C",
"I  c #665C5A",
"U  c #636463",
"Y  c #6B6B6B",
"T  c #727272",
"R  c #777778",
"E  c #7C7C7C",
"W  c #865D2D",
"Q  c #9A692E",
"!  c #8C6634",
"~  c #9A6830",
"^  c #A26F38",
"/  c #A47339",
"(  c #A7793C",
")  c #9A7566",
"_  c #9C756A",
"`  c #9F7D69",
"'  c #A47D6A",
"]  c #5B8E36",
"[  c #668E38",
"{  c #6B933D",
"}  c #679D3B",
"|  c #729F3E",
" . c #5BA33D",
".. c #74A13F",
"X. c #71AA3F",
"o. c #64B93E",
"O. c #6ABC3E",
"+. c #7FB53F",
"@. c #76BE3F",
"#. c #77B33A",
"$. c #79C23F",
"%. c #589E5A",
"&. c #6E9842",
"*. c #729F43",
"=. c #649855",
"-. c #5AA74E",
";. c #5BA552",
":. c #6CA542",
">. c #68A747",
",. c #76A341",
"<. c #78A642",
"1. c #74AF40",
"2. c #7CAD43",
"3. c #7BAB49",
"4. c #75A94C",
"5. c #64B343",
"6. c #6DB546",
"7. c #6EB34B",
"8. c #6BB941",
"9. c #7EB144",
"0. c #74BC43",
"q. c #7BBE45",
"w. c #73B44C",
"e. c #76B849",
"r. c #7DBA4A",
"t. c #76B54B",
"y. c #66AA51",
"u. c #6DAB54",
"i. c #66A754",
"p. c #72AD53",
"a. c #70A758",
"s. c #78AC59",
"d. c #73B152",
"f. c #7DB452",
"g. c #7BC042",
"h. c #81C53D",
"j. c #8ECB3F",
"k. c #87C83C",
"l. c #90CF37",
"z. c #94CC3F",
"x. c #80B345",
"c. c #80BF47",
"v. c #82B74F",
"b. c #85BD4C",
"n. c #89BE4C",
"m. c #82B552",
"M. c #85B950",
"N. c #A58C6B",
"B. c #AF926F",
"V. c #B48974",
"C. c #C49657",
"Z. c #C39559",
"A. c #CBA47F",
"S. c #83C146",
"D. c #8DC546",
"F. c #8EC940",
"G. c #85C148",
"H. c #86C149",
"J. c #89C249",
"K. c #88C04A",
"L. c #8AC14A",
"P. c #8BC24A",
"I. c #8AC24A",
"U. c #8AC249",
"Y. c #8CC349",
"T. c #8DC448",
"R. c #8BC24A",
"E. c #90C746",
"W. c #92CA43",
"Q. c #838383",
"!. c #8C8C8C",
"~. c #939393",
"^. c #9C9C9C",
"/. c #9D9FA0",
"(. c #A2A2A3",
"). c #ACACAC",
"_. c #B2B2B2",
"`. c #BCBDBC",
"'. c #C2C2C2",
"]. c gray79",
/* pixels */
"P.P.M.d.q.P.P.P.P.P.P.P.P.P.P.P.n.x.P.P.P.P.P.P.P.n.x.P.P.P.P.P.P.P.P.P.P.P.P.P.P.P.P.P.P.P.P.P.P.P.",
"P.P.M.s.t.P.P.P.P.P.P.P.P.P.P.P.x.M ,.P.P.P.P.P.P.9.M ,.P.P.P.P.P.P.P.P.P.P.P.P.P.P.P.P.P.P.P.P.P.P.",
"P.P.P.L.P.P.P.P.P.P.P.P.P.P.P.P...3 w x.9.2.2.9.P.} 3 w x.P.P.P.P.P.P.P.P.P.P.Y.E.D.P.P.P.P.P.P.P.P.",
"P.P.P.P.P.P.P.P.P.P.P.P.P.P.P.x.t s ; [ t 3 3 t [ 0 s 3 2.P.P.P.P.P.P.P.G.P.P.P.T.Y.P.P.P.P.P.P.P.P.",
"P.P.P.P.P.P.P.S.P.P.P.P.P.P.P.2.3 s * 8 x c z z 3 O d 4 ..P.P.P.b.P.T.P.b.P.P.P.P.P.P.P.P.P.P.P.P.P.",
"P.P.P.P.P.P.P.w.e.v.P.P.P.P.P.9.2 * c P Y U D c d * z d t 9.P.P.P.P.Y.P.P.P.P.P.P.Y.q.q.G.P.P.P.P.P.",
"P.P.P.P.P.P.P.d.p.f.P.P.P.P.P.9.3 c U T T T U D c z z > % 2.P.P.P.P.P.P.P.P.P.P.P.P.G.6.r.b.P.P.P.P.",
"P.P.P.P.P.P.P.P.P.P.P.P.P.P.P.,.8 P T T T T T U S c z > - ..P.P.P.P.P.P.P.P.P.P.P.P.P.u.u.r.P.P.P.P.",
"P.P.P.P.P.P.P.P.P.P.P.P.P.P.9.t v Y T T T T T U S v z > * e 9.P.P.J.g.P.P.P.Y.T.P.P.P.b.b.L.P.P.P.P.",
"P.P.P.P.P.P.b.b.P.P.P.P.P.P.2.8 P T T T T T U v z z u > * 3 #.P.P.g.S.G.P.P.Y.T.P.P.P.P.P.P.P.P.P.P.",
"P.P.P.P.P.P.b.b.P.P.P.P.P.P.2.8 P T T T T U v u O > > > * 3 #.S.S.5.c.g.q.G.P.P.P.P.P.P.P.P.P.P.P.P.",
"P.P.b.P.P.P.f.f.P.P.P.P.P.P.2.3 v Y T T U c c !.> * > > * t 9.q.S.w.6.q.8.S.P.P.P.P.P.P.P.P.P.P.P.P.",
"P.P.P.P.P.P.v.m.Y.P.P.P.P.P.3.t c Y Y P > c `./.> * > * ; ..f.p.y.d.i.w.7.b.P.P.P.P.P.P.P.P.T.Y.P.P.",
"P.P.P.P.P.P.P.P.G.J.Y.P.P.P.P.,.a P v & : (.(.z O * > * % 2.n.b.b.n.b.P.P.P.P.P.P.P.P.P.P.P.D.D.P.P.",
"P.P.P.P.P.P.P.P.G.j.T.P.P.G.P.2.8 I i = , f f z z > * * e x.P.P.P.P.P.P.P.P.P.P.P.E.T.P.P.P.P.P.P.P.",
"P.P.P.P.P.c.S.P.P.0.0.q.S.0.P.x.B _ V._ ) ) ' H v d O % ..P.P.P.P.P.P.P.P.P.P.P.P.W.z.q.P.P.P.P.P.P.",
"P.P.P.P.P.G.0.q.e.;.5.c.J.o.q.P.<.V N.n g n A.` b > d 3 ..P.P.P.P.P.P.P.b.P.P.P.P.Y.r.w.M.n.P.P.P.P.",
"P.P.P.P.P.P.w.G.w.%.w.P.G.O.q.Y.P.<.C N.B.' ' g * c K u k | 9.P.P.G.P.P.n.L.P.P.P.G.y.d.M.P.P.P.P.P.",
"P.P.P.P.P.P.P.P.P.b.P.P.P.P.P.P.P.9.] 9 i 1 1 u * F S ~.U h k ,.P.$.S.n.n.P.P.P.P.G.w.f.P.P.P.P.P.P.",
"P.P.P.P.P.P.P.P.P.P.P.P.P.P.P.P.<.m - y G l d u * s ~.^.U !.Y N ,.l.h.M.n.P.P.P.P.P.Y.P.P.P.P.P.P.P.",
"P.P.f.m.P.P.P.P.P.P.P.P.P.P.P.x.m S > R s > > R !.F Y L ).'.(.L m +.q.n.n.P.P.P.P.P.P.P.P.P.P.n.P.P.",
"P.P.r.b.P.P.P.P.P.P.Y.G.G.P.P.9.% O s E F Y s c ~.Y F F _.(.~.F 8 *.w.J.P.P.P.P.E.E.b.P.P.P.P.v.v.P.",
"P.Y.6.6.G.P.P.P.P.P.T.P.h.q.b.*.8 * R z d z Q.!.R K Q.L !.U K U U m 9.P.P.P.P.P.W.F.b.P.P.P.P.P.P.P.",
"P.P.r.w.P.P.P.P.P.P.P.P.h.6.3.N R u U L d L T T U L ~.U K ^.Y K E h 2.P.P.b.P.P.G.G.b.P.P.P.P.P.P.P.",
"P.P.Y.Y.P.P.P.P.P.G.P.P.G.b.<.h Q.u D L E K D S L !.U > > !.E F P h ..P.b.m.P.P.P.P.P.P.P.P.P.P.P.P.",
"P.P.P.P.P.P.P.P.P.G.G.P.P.P.2.h E s E ~.L Y U K !.Y > * * s ^.Y L L k 9.P.P.P.P.P.P.P.P.P.P.P.P.P.P.",
"P.P.P.P.P.S.G.n.P.P.b.P.P.P.9.m L * u E F E F U Q.u > d > > Q.U E P 3 ..P.P.P.P.P.S.G.P.P.P.n.v.P.P.",
"P.P.P.P.P.S.0.r.n.P.P.P.Y.D.n.{ 4   + 6 , 7 , < 6 . > z u * s T s *   q x.P.P.P.P.j.g.b.Y.P.b.b.P.P.",
"P.P.P.P.P.G.6.t.b.P.P.P.P.P.x.e * @ W / ~ / Q / W < > c z >   > > *   3 ,.P.P.P.n.r.6.t.b.P.P.P.P.P.",
"P.P.P.P.P.M.p.e.b.P.P.P.P.J...3 * $ ! C.( Z.( C.^ Z = j z > * z z > * F k x.P.P.P.f.p.w.b.P.P.P.P.P.",
"P.P.P.P.P.P.P.P.P.P.P.P.Y.1.r : *   + , , 7 , , $ 7 # O s * z P v > O z 8 ,.P.P.P.P.P.P.P.P.P.P.P.P.",
"P.P.P.P.Y.Y.P.P.P.P.P.P.Y.>.- * o O * * z K z * s Q.U > O d v U v > O z J m x.P.P.P.P.P.P.P.P.P.P.P.",
"P.P.P.P.Y.E.T.P.P.P.P.P.P.2.3 * * Y ^.d > z > d (.).^.U * s > L c >   O z a ,.P.P.P.D.Y.P.P.P.P.P.P.",
"P.P.b.P.P.Y.P.P.P.P.P.P.P...3 * > ^.'.!.s * > Q.`.).^.U O   O z > *   O z J k 9.P.P.D.Y.P.P.P.Y.D.P.",
"P.P.P.P.P.P.P.P.P.P.P.P.<.m >   > ).).^.Q.s d L ^.(.R S * O s > * O > * * z 3 2.P.P.P.P.P.P.P.P.Y.P.",
"P.P.P.P.P.P.P.P.P.P.P.x.m L c * > Q.T L T K > K L Y U F L * * > L c z > O d 8 ..P.P.P.P.P.P.P.P.P.P.",
"P.P.P.P.P.P.P.P.P.P.P.2.8 P v > * s F Y U > * > P F F Y U > L U Y D c > O z J m x.P.P.P.P.P.P.P.P.P.",
"P.P.P.P.S.P.P.P.P.P.P.*.h L c > * U ~.E U * * * L Y R ^.T s P T T U S z > * z 3 X.J.g.P.n.P.P.P.P.P.",
"P.P.P.P.k.J.n.P.P.P.9.k L S u * > ^.`.Q.U * d > > Y (.'.(.U s U T U S z > O d 3 :.b.O.r.M.P.P.P.P.P.",
"P.P.P.P.@.7.m.n.P.P.2.8 P v > * > _.].(.U * d > * U ).'.).Y * c U D c z > O d 3 <.G.o.w.n.P.P.Y.P.P.",
"P.P.P.P.G.v.n.P.P.P.2.8 L c > * > (._.!.d   > z > s ).].).U * > c c z > * O d 3 2.P.b.b.P.P.T.E.P.P.",
"P.P.P.P.P.P.P.P.G.P.2.3 d > 3 % O d z d > X h z > * !._.!.z O * > z > ; % O d 3 2.P.Y.P.P.P.Y.D.P.P.",
"P.P.P.P.P.P.P.P.q.J.:.% - t ,...3 d c z > % { h * ; s z z z > X - > e ..| 3 d 3 2.P.P.P.P.P.P.P.P.P.",
"P.P.P.P.P.P.P.P.F.0.>.m &.x.P.,.3 c U v > % } t e [ 3 z P S > % A M ,.P.9.3 s t 9.P.v.v.P.P.P.P.P.P.",
"P.P.P.P.P.P.P.Y.q.;.i.4.n.P.,.e > S U c > r 9.x.x.x.t x U U c > w <.Y.P.9.t t <.P.b.b.P.P.P.P.P.P.P.",
"P.P.P.P.P.P.P.P.v.u.p.b.P.x.e * z L c > t :.P.Y.T.P.,.8 v U v > 2 1.S.g.q.x.3.P.P.P.P.P.P.P.P.P.P.P.",
"P.P.P.P.P.P.P.P.P.P.P.P.P.x.w % 3 8 3 e <.P.P.D.D.P.9.3 > z z * -  .r.q.5.m.n.P.P.P.P.P.G.P.P.P.P.P.",
"P.P.P.P.P.P.P.P.P.P.P.P.P.P.9.2.2.<.<.x.P.P.P.Y.P.P.x.t 3 3 3 - 5 =.m.r.-.s.n.P.P.P.P.P.q.q.b.n.P.P.",
"P.P.e.b.Y.P.P.P.P.P.P.P.P.P.P.P.P.P.P.P.P.P.P.P.P.P.P.x.9.3.2.2.4.M.L.P.b.b.P.P.P.P.P.P.b.y.m.M.P.P.",
"P.P.7.7.P.P.P.P.P.P.P.P.P.P.P.P.P.P.P.P.P.P.P.P.P.P.P.P.P.Y.P.P.Y.Y.P.P.Y.P.P.P.P.P.P.P.G.;.a.n.P.P."
};
