/* XPM */
static char *_27554689f9440a8fcd9ade768bc9133zMMnYFaftStzVbGJ[] = {
/* columns rows colors chars-per-pixel */
"50 50 138 2 ",
"   c #4A2E1A",
".  c #4F311B",
"X  c #54341D",
"o  c #5D371F",
"O  c #5C391F",
"+  c #643B1F",
"@  c #543523",
"#  c #5A3722",
"$  c #573826",
"%  c #5C3A23",
"&  c #563928",
"*  c #5B3B29",
"=  c #633D23",
"-  c #6A3F22",
";  c #623E29",
":  c #664125",
">  c #6B4325",
",  c #65422A",
"<  c #6C452A",
"1  c #6E492C",
"2  c #734525",
"3  c #7B4725",
"4  c #744927",
"5  c #7C4926",
"6  c #724629",
"7  c #744A2B",
"8  c #7B4D2B",
"9  c #76502D",
"0  c #7D522D",
"q  c #6D4A30",
"w  c #734D31",
"e  c #7C4E30",
"r  c #765133",
"t  c #7C5332",
"y  c #7F5838",
"u  c #824C26",
"i  c #824E2A",
"p  c #84522D",
"a  c #8C542C",
"s  c #89582F",
"d  c #92572C",
"f  c #985A2D",
"g  c #835532",
"h  c #8B5732",
"j  c #845934",
"k  c #8C5B34",
"l  c #855C38",
"z  c #8A5E3A",
"x  c #935D34",
"c  c #995E33",
"v  c #8D623A",
"b  c #956136",
"n  c #9C6236",
"m  c #93643C",
"M  c #9B643A",
"N  c #96693E",
"B  c #9C6A3E",
"V  c #A26435",
"C  c #A96837",
"Z  c #A2663A",
"A  c #A46B3C",
"S  c #AC6D3D",
"D  c #B16F3D",
"F  c #AC703F",
"G  c #B3713E",
"H  c #976940",
"J  c #9C6D41",
"K  c #9D7144",
"L  c #9C774A",
"P  c #A26E42",
"I  c #AC6F40",
"U  c #A47344",
"Y  c #AB7444",
"T  c #AC7947",
"R  c #AB7749",
"E  c #A57A4B",
"W  c #AC7B4A",
"Q  c #B47543",
"!  c #B97643",
"~  c #B37846",
"^  c #BD7A45",
"/  c #B37D4A",
"(  c #BC7E49",
")  c #AC7E50",
"_  c #C07D47",
"`  c #C07E49",
"'  c #B4814D",
"]  c #B7824C",
"[  c #BC824D",
"{  c #BA854E",
"}  c #BD874F",
"|  c #BE894F",
" . c #AC8151",
".. c #AD8856",
"X. c #B68652",
"o. c #BC8551",
"O. c #BE8950",
"+. c #BD8A52",
"@. c #C2814A",
"#. c #C2844A",
"$. c #C1824D",
"%. c #C3834D",
"&. c #C5854E",
"*. c #C6894F",
"=. c #C08651",
"-. c #C48751",
";. c #C28B53",
":. c #C78B50",
">. c #C38D52",
",. c #C78E53",
"<. c #C58A54",
"1. c #C58F54",
"2. c #CA8F53",
"3. c #C38D58",
"4. c #CB8F58",
"5. c #C59155",
"6. c #C79054",
"7. c #CA9052",
"8. c #C99255",
"9. c #CA9357",
"0. c #CC9255",
"q. c #C99456",
"w. c #CC9456",
"e. c #CD9556",
"r. c #CE9757",
"t. c #C3925A",
"y. c #CC9658",
"u. c #C39A5F",
"i. c #CF9959",
"p. c #D09A5A",
"a. c #D19A5A",
"s. c #D19B5A",
"d. c #CDA365",
"f. c #D4A463",
"g. c #D5A969",
"h. c #D8A968",
"j. c #DAB26E",
"k. c #DBB471",
/* pixels */
"k ^ C > B 1.2.:.#.^ ^ h % 2 a f V V a + @ ; = = a > j w.i.w.@.^ ^ %.U h ; # @ : a 4 ; c a % u d f > ",
"* h n % 6 U ( ` ^ ^ A > u % @ # = = X 2 2 = 2 @ @ @ t ,.7.@.^ ^ ` <.R j > t 7 = 3 = % 7 8 7 6 1 = @ ",
"w % % $ @ : j B k 8 * @ > = q w w q , > - @ @ * 1 6 6 / %.` %.+.W B J 6 % Z V # @ , Y ;.5.8.5.>.{ U ",
"1.J 1 * * * 1 7 % & * t J ] >.8.8.5.+.U t , * 8 Q Q 2 7 ) P m g 7 7 0 : $ ; > 7 g 1 ;.p.i.i.i.p.p.p.",
"p.p.} j < Z ! S = , B 8.p.p.p.i.i.i.p.p.y./ t > a u @ @ * % @ 8 C Q ! n ; * $ g D 8 ] p.i.i.i.i.i.i.",
"i.i.p.} 1 5 a > @ g ` 8.i.i.i.i.i.i.i.i.i.p.w.K , @ , g A k % 2 d c a = @ * * % > % J y.i.i.i.i.i.i.",
"i.i.p.} , @ % @ % b &._ :.w.w.w.w.i.i.i.i.i.i.p./ 1 M ^ _ Q < $ # @ < l v r * * ; * j ;.0.y.i.i.i.i.",
"2.2.*./ 6 b S 8 # 0 [ ^ ^ ^ ^ ^ @.8.i.i.i.i.i.i.1.8 8 a c Z 8 x b 1 / i.p.+., g S h 0 ~ ` ` @.%.*.:.",
"^ ^ ^ / < n ^ Z = 8 ~ @.^ ^ ^ ^ ^ ^ *.w.i.y.8.1.~ 1 @ # # # @ 8 n 6 / 0.2.[ 7 M Q V 4 U %.^ ^ ^ ^ ^ ",
"^ @.[ v $ % p p % p A 4.%.^ ^ ^ ^ ^ ^ _ &.:.<.A 0 % 8 A A x * * > % t [ ( Y ; % = ; = J X.+.%.^ ^ ^ ",
";.U 1 @ * w 1 % $ 0 B [ <.4.4.:.%.@.-.4.4.+.B 7 # @ a G _ Q < 4 a = $ 0 6 = @ * * & % j S ~ / o.%.%.",
"t # % y E 5.5.H ; * p k b A ~ [ 4.1.%.~ n 8 % @ & * = d c 5 @ = 7 t l t 1 * & 2 u ; , > p Z I A B R ",
"@ * J w.p.p.p.i.H % # > 4 0 h x M M s > % w m N 1 * $ % % @ t R >.q.i.i.5.{ v > - 4 S x O > 8 7 2 > ",
"= 1 >.i.q.q.i.i.;.t * : = : > 7 7 = @ @ v w.p.y./ l , M c p [ i.w.q.y.q.t.p.i.{ t ; 8 > * % @ @ # 5 ",
"# , | i.i.+.8.&.` R 7 x 8 @ # % : 6 , z w.8.*.:.%.Q 7 g i b :.y.t.K +.q.y.y.w.7.[ 6 = t ] ] R l > u ",
"& * / p.p.X.P ! _ X.0 % % * p A Q ! x B :.@.` ( A k : = # 0 [ w.i.] ,.2.&.@.^ [ Y 6 = P :.0.p.y.N % ",
"* < [ y.2.U J Q ^ ] k 6 * * 2 a c p % ; v N v v k > = p % 7 ~ 2.&.@.^ ^ ^ @.-.Y 7 @ . t [ ^ *.p.+.< ",
"$ < o.@.^ ^ _ ^ &./ k 6 $ * ; 6 s 6 * $ . . X X = * 1 * @ 1 B [ =.:.:.:.-.( m 0 7 ; % X v ( ( 4.+.8 ",
"* # U <.` &.<.+.X. .g % % p S ! ! d # = 2 > @ @ 1 W 5./ t % 6 p k M Y Y k > X x S 5 3 X O m W ~ ( j ",
"* @ r E U J N h p v > @ % > i a 8 : q r 6 = % m 5.p.p.p.5.z @ # : > 7 : @ * w x M M 8 @ . 8 k k M < ",
"* * $ % = = % % % % % 1 w ; @ < U u.d.g.t.t t 8.p.i.i.i.2.[ j @ @ = = $ $ U w.w.w.0.[ j @ # > 2 6 1 ",
"- * 6 c M x 8 % @ * U ,.5.W , B f.k.k.j.f.W z y.i.i.i.7.^ ( U 8 ; a d % , W 5.5.5.8.i.:.t : x S Q G ",
"@ * = a S G Z > * 1 =.y.w.+.w +.f.f.f.p.p.5.t +.p.i.w.( ^ ! R k 7 = = @ N +.E X.+.+.5.w.P > a c c 4 ",
"Y U N 7 = - % 8 x ; m %.%./ < W p.p.p.p.p.;.1 Y p.y.%.^ ^ ^ [ b 0 = - ; ] y.+.q.p.p.i.8.M > # 6 m U ",
"p.p.p./ * & & 8 S < * m k 8 @ j Y / / / U 0 % U 2.&.^ ^ ^ :.t.N 6 % = % m 1.w.8.8.,.&.~ 6 p U 5.i.p.",
"i.i.w.%.t * w e > % $ # @ @ * @ = > 4 8 = 8 > v -.^ ` :.;.U J m = x S > > U %.@.^ ^ ^ k h ,.p.p.i.i.",
"8.:.` @.j p S n > * ; , N U R U N 8 8 S Z 4 # ; E 3./ J g 4 > : # 8 u % @ > m ~ ~ A h ; m i.i.i.i.i.",
"^ ^ ^ Y % : 8 ; @ a a k w.p.p.p.p.w.Y a p > x i < 9 > = : > 8 8 < k i % 2 @ % , ; @ g C 6 U q.w.,.%.",
"( ` [ 1 w U +.] l 4 > 7 8.i.i.i.i.i.p.+.t = 5 > 8 p @ = n Q ! S 2 @ , t k B P J m t 1 x > , U [ ^ ( ",
"/ U j v 5.p.p.i.w.B * , { p.i.i.i.i.i.p.+.> = % g S > % 2 p p = = > N w.i.p.p.p.p.w.T 8 1 0 8 W [ [ ",
"k 2 % ] p.w.5.R %.( t % U 2.8.w.y.i.i.i.+.p f 8 % p z N J U U N 7 # g 8.p.i.i.i.i.i.p.| h G 6 t M M ",
"# = 5 +.q.5.+.J ^ ^ j $ k ( ^ ( @.@.%.#./ 1 2 j W 1.y.p.p.p.p.y.U * , { w.w.y.i.i.i.p.>.1 8 % % 7 6 ",
"> 2 a ;.i.w.%.^ ^ [ h = g X.@.^ ^ ^ ^ ` T , J w.p.i.i.i.i.i.i.8.T 1 @ U %.%.%.&.*.*.2.T < 1 * x Q Y ",
"= @ * U *.` ^ ^ ( U 7 5 8 Y / [ %.` %.U j J +.p.i.i.i.i.i.i.w.;.b : @ j R B U Y / +.[ v k G 4 4 p 5 ",
".. .1 % k ~ %./ B 6 # # % p A Y Y W z 1 ] q.E X.y.p.i.i.p.i.:.;.h # ; : 4 > > 7 8 j 0 % : 6 % 7 v L ",
"k.f.W g p < g 1 > k A g % > 4 8 7 > @ U p.5.+.+.] ,.7.2.2.%.:.~ > > Z I I n = 4 > 8 k ; g x 0 ;.j.k.",
"f.p.w.g 8 6 j , = c a 7 0 M 6 % O - g 8.p.q.8.2.^ Y ^ ^ ^ -.=.j # = u c V a = < = k V > % 2 P h.k.k.",
"i.p.p.j 2 Y p.+.t = Y >.w.w.5.] k 2 x &.*.*.#.^ ^ ^ ^ ^ &.<.M ; @ 2 3 = # 6 h M M 6 @ = a 2 U h.h.f.",
"y.8.Y 8 5 / i.p.] % J 0.0.w.w.i.8.t p &._ ^ ^ ^ ^ ^ ( :.4.F 7 # z N 7 @ : n G G n = * 6 2 # z 1.8.q.",
"p 7 : 8 > t [ &.~ = r [ / ( } :.[ g > M [ @.^ ^ %.<.4.:.~ s # h 8.p.;.z % = - = # t / >.Y w * 8 h h ",
"> * > n 7 % z m g @ $ 8 8 0 j m t 8 > > b [ 4.8.<.( A b h = , [ p.i.p.8.z > 5 % m 8.i.p.p.+.w @ = 8 ",
"Q Q k = 2 > # % % 1 7 - u 6 w j , 8 x > 0 n / A b s p 0 > @ 1 } i.i.w.&.! 2 2 h 1.p.i.i.i.4.Y , a Q ",
"! ! C 2 i 2 @ , Z ^ G > 7 ] y.y.] v 7 # : p h p 4 > : = > 1 ; B w.p.:.^ ^ 8 = x 5.i.i.i.*.^ ^ 1 5 V ",
"a i - @ = x g = c C p 1 { i.0.8.4.[ x h b % 2 2 > > > x Q S > 0 [ 8.@.^ ( 0 7 g 5.w.i.:.^ ^ ^ 7 @ > ",
"% a k e ; 8 > $ = > @ N 0.@.^ _ ( A k 2 8 8 x h s h k Q ! ^ p 7 J Y W W J 8 n b y.+.{ ^ ^ ^ ( 8 7 ; ",
"7 ! ^ n = j J Y ~ Y g t ~ [ / W B s > : B w.w.5.8 o > u u p 2 : 0 p h s 0 > p 8 / ~ Y ^ ^ ( N 0 ! n ",
"8 ^ S + 0 w.p.p.i.w.%.g % : : : 0 > = p Y 0.8.,.g 5 5 a 2 8 7 * ; > 7 6 > 7 g # : P ` %.[ B > p D a ",
"8 D 4 X U p.i.i.i.i.i.} 1 > O   X # , # 1 / [ / 8 + = j / q.w.] j % 5 - 5 Q S > = = v B 0 = @ + 2 = ",
"> = @ 1 ;.i.i.i.i.i.p.,.p p a g M S Q Z 2 0 0 1 # * J w.p.i.i.i.%.N 2 = ; p 2 2 d = % 2 # $ 7 g Z Z ",
"2 , % g 1.y.i.i.i.i.w.( , u D ^ ^ ^ ^ D 5 X X i Z g ] p.i.i.y.&.^ =.z ; 1 A h 2 2 % M ! s 6 S ^ ^ ! "
};
